<svg width="41" height="41" xmlns="http://www.w3.org/2000/svg"><g fill-rule="nonzero" fill="none"><path fill="#CCC" d="M1.328 0L0 2.028l5.933 33.064 1.594-1.851z"/><path fill="#E6E6E6" d="M5.933 35.092L39.406 41 41 39.501l-33.473-6.26z"/><path fill="#FFF" d="M1.328 0l28.957 9.963L41 39.501l-33.473-6.26z"/><path fill="#AA0087" d="M35.82 30.428l-20.465-4.77-4.8-20.509-5.862-2.063 5.58 27.633 27.725 5.573-1.01-2.716"/><path fill="#F10000" d="M32.756 22.158v-.01l-11.211-2.636-2.763-11.444-4.773-1.702 4.012 16.603 16.497 3.941-1.762-4.752"/><path fill="#CF0000" d="M21.182 19.883l10.963 3.112.61-.846L21.989 19z"/><path fill="#AF0000" d="M33.562 26.698l-1.417-3.703.61-.846 1.763 4.761zM21.988 19.001L18.782 8.068l-.673.829 3.073 10.986"/><path fill="#FFA600" d="M28.868 11.639l-6.756-2.39 2.125 7.565 7.297 2.01-2.666-7.185"/><path fill="#F17100" d="M30.259 18.48l1.275.336-2.666-7.177-6.756-2.39.336 1.102 5.597 1.931z"/><path fill="#E25D00" d="M28.868 11.639l-.823.635 2.214 6.207 1.275.344z"/><path fill="#CF0000" d="M18.782 8.068l-.673.829-3.808-1.305-.292-1.226z"/><path fill="#C2009D" d="M10.556 5.15l-.94.837L4.96 4.409l-.266-1.323z"/><path fill="#930077" d="M10.556 5.15l-.94.837 4.508 20.888 1.231-1.217z"/><path fill="#C2009D" d="M35.82 30.428l-.815 1.34-20.88-4.893 1.23-1.217z"/><path fill="#930077" d="M35.82 30.428l-.815 1.34 1.47 4.215 1.523.309z"/></g></svg>