<svg xmlns="http://www.w3.org/2000/svg" xmlns:xlink="http://www.w3.org/1999/xlink" viewBox="0 0 36 42">
  <defs>
    <path id="b" d="M11.6808 20.877199l-7.7064-8.213717H30c.6636 0 1.2-.538901 1.2-1.205595 0-.665488-.5364-1.205595-1.2-1.205595H3.9744l7.7064-8.212511c.432-.459332.4104-1.271903-.0372-1.714356-.474-.466565-1.266-.417136-1.7064.056663l-9.6 10.247556c-.2808.277286-.3324.546134-.3372.828243 0 .278493.1668.649816.3372.82945l9.6 10.247555c.4476.46536 1.1832.511172 1.7064.037373.4668-.421958.4692-1.235734.0372-1.695066zm14.382-2.41119c-.4476-.466565-1.1844-.511172-1.7064-.038578-.4668.421958-.4692 1.23694-.0372 1.696271l7.7052 8.212512H6c-.6636 0-1.2.540106-1.2 1.205595 0 .666694.5364 1.205594 1.2 1.205594h26.0244l-7.7052 8.213718c-.432.459331-.4104 1.270696.0372 1.714355.4728.46536 1.2648.41593 1.7064-.056663l9.6-10.247555c.2808-.278493.3324-.546135.3372-.82945 0-.277286-.1668-.649815-.3372-.828243l-9.6-10.247556z"/>
    <filter id="a" width="102.8%" height="104.9%" x="-1.4%" y="-3.7%" filterUnits="objectBoundingBox">
      <feOffset dy="-1" in="SourceAlpha" result="shadowOffsetOuter1"/>
      <feColorMatrix in="shadowOffsetOuter1" values="0 0 0 0 0 0 0 0 0 0 0 0 0 0 0 0 0 0 0.1 0"/>
    </filter>
  </defs>
  <g fill="none" fill-rule="evenodd" transform="translate(0 1)">
    <use fill="#000" filter="url(#a)" xlink:href="#b"/>
    <use fill="#FFF" xlink:href="#b"/>
  </g>
</svg>
