<svg width="42" height="42" viewBox="0 0 42 42" xmlns="http://www.w3.org/2000/svg"><title>02-creative-production</title><g transform="translate(1 1)" stroke="#4A4A4A" fill="none" fill-rule="evenodd"><path d="M38 12a19.18 19.18 0 0 0-2.674-4.473 2.608 2.608 0 0 1-1.637.582c-1.425 0-2.58-1.118-2.58-2.495 0-.605.231-1.152.602-1.584a20.157 20.157 0 0 0-4.626-2.586 2.566 2.566 0 0 1-2.426 1.675c-1.424 0-2.58-1.117-2.58-2.495 0-.155.02-.305.048-.452C21.267.062 20.39 0 19.5 0c-.891 0-1.766.062-2.627.172.029.147.047.297.047.452 0 1.378-1.155 2.495-2.58 2.495a2.566 2.566 0 0 1-2.425-1.675A20.157 20.157 0 0 0 7.289 4.03c.37.432.602.98.602 1.584 0 1.377-1.155 2.495-2.58 2.495a2.608 2.608 0 0 1-1.637-.582A19.18 19.18 0 0 0 1 12m0 16a19.18 19.18 0 0 0 2.674 4.473 2.612 2.612 0 0 1 1.637-.582c1.425 0 2.58 1.118 2.58 2.495 0 .605-.231 1.152-.602 1.584a20.157 20.157 0 0 0 4.626 2.586 2.566 2.566 0 0 1 2.426-1.675c1.424 0 2.58 1.117 2.58 2.495 0 .155-.02.305-.048.452.86.11 1.736.172 2.627.172.891 0 1.766-.062 2.627-.172a2.381 2.381 0 0 1-.047-.452c0-1.378 1.155-2.495 2.58-2.495 1.126 0 2.073.702 2.425 1.675a20.157 20.157 0 0 0 4.626-2.586 2.424 2.424 0 0 1-.602-1.584c0-1.377 1.155-2.495 2.58-2.495.625 0 1.19.225 1.637.582A19.18 19.18 0 0 0 38 28"/><path d="M40 20s-8.954 11-20 11S0 20 0 20 8.954 9 20 9s20 11 20 11z" stroke-linejoin="round"/><ellipse stroke-linejoin="round" cx="20" cy="20" rx="10.968" ry="11"/><circle stroke-linejoin="round" cx="20" cy="20" r="7"/><path d="M16 20a4 4 0 0 1 4-4" stroke-linejoin="round"/><path d="M19 5h1m7 1h1M12 6h1m6 29h1m7-1h1m-16 0h1"/></g></svg>