<svg xmlns="http://www.w3.org/2000/svg" viewBox="0 0 41 47">
  <defs>
    <filter id="a" width="102.4%" height="104.3%" x="-1.2%" y="-3.3%" filterUnits="objectBoundingBox">
      <feOffset dy="-1" in="SourceAlpha" result="shadowOffsetOuter1"/>
      <feColorMatrix in="shadowOffsetOuter1" result="shadowMatrixOuter1" values="0 0 0 0 0 0 0 0 0 0 0 0 0 0 0 0 0 0 0.1 0"/>
      <feMerge>
        <feMergeNode in="shadowMatrixOuter1"/>
        <feMergeNode in="SourceGraphic"/>
      </feMerge>
    </filter>
  </defs>
  <g fill="#FFF" filter="url(#a)" transform="translate(0 1)">
    <path d="M22.661878 4.42905297c0-1.19397519-.9679028-2.16187801-2.161878-2.16187801-1.1939752 0-2.161878.96790282-2.161878 2.16187801 0 1.19397519.9679028 2.16187801 2.161878 2.16187801 1.1939752 0 2.161878-.96790282 2.161878-2.16187801zm1.7571429 0c0 2.16441839-1.7546025 3.91902087-3.9190209 3.91902087-2.1644184 0-3.9190209-1.75460248-3.9190209-3.91902087C16.5809791 2.26463458 18.3355816.5100321 20.5.5100321c2.1644184 0 3.9190209 1.75460248 3.9190209 3.91902087zM22.661878 24.4091493c0-1.1939752-.9679028-2.161878-2.161878-2.161878-1.1939752 0-2.161878.9679028-2.161878 2.161878 0 1.1939752.9679028 2.161878 2.161878 2.161878 1.1939752 0 2.161878-.9679028 2.161878-2.161878zm1.7571429 0c0 2.1644184-1.7546025 3.9190208-3.9190209 3.9190208-2.1644184 0-3.9190209-1.7546024-3.9190209-3.9190208S18.3355816 20.4901284 20.5 20.4901284c2.1644184 0 3.9190209 1.7546025 3.9190209 3.9190209zM22.661878 41.3487961c0-1.1939751-.9679028-2.161878-2.161878-2.161878-1.1939752 0-2.161878.9679029-2.161878 2.161878 0 1.1939752.9679028 2.1618781 2.161878 2.1618781 1.1939752 0 2.161878-.9679029 2.161878-2.1618781zm1.7571429 0c0 2.1644184-1.7546025 3.9190209-3.9190209 3.9190209-2.1644184 0-3.9190209-1.7546025-3.9190209-3.9190209 0-2.1644183 1.7546025-3.9190208 3.9190209-3.9190208 2.1644184 0 3.9190209 1.7546025 3.9190209 3.9190208zM6.59093098 13.9847512c0-1.1939752-.96790282-2.161878-2.16187801-2.161878-1.19397519 0-2.16187801.9679028-2.16187801 2.161878 0 1.1939752.96790282 2.161878 2.16187801 2.161878 1.19397519 0 2.16187801-.9679028 2.16187801-2.161878zm1.75714286 0c0 2.1644184-1.75460248 3.9190209-3.91902087 3.9190209-2.16441839 0-3.91902087-1.7546025-3.91902087-3.9190209 0-2.1644184 1.75460248-3.9190209 3.91902087-3.9190209 2.16441839 0 3.91902087 1.7546025 3.91902087 3.9190209zM6.59093098 32.2274478c0-1.1939752-.96790282-2.161878-2.16187801-2.161878-1.19397519 0-2.16187801.9679028-2.16187801 2.161878 0 1.1939752.96790282 2.161878 2.16187801 2.161878 1.19397519 0 2.16187801-.9679028 2.16187801-2.161878zm1.75714286 0c0 2.1644184-1.75460248 3.9190209-3.91902087 3.9190209-2.16441839 0-3.91902087-1.7546025-3.91902087-3.9190209 0-2.1644184 1.75460248-3.9190208 3.91902087-3.9190208 2.16441839 0 3.91902087 1.7546024 3.91902087 3.9190208zM38.732825 13.9847512c0-1.1939752-.9679028-2.161878-2.161878-2.161878-1.1939752 0-2.161878.9679028-2.161878 2.161878 0 1.1939752.9679028 2.161878 2.161878 2.161878 1.1939752 0 2.161878-.9679028 2.161878-2.161878zm1.7571429 0c0 2.1644184-1.7546025 3.9190209-3.9190209 3.9190209-2.1644184 0-3.9190208-1.7546025-3.9190208-3.9190209 0-2.1644184 1.7546024-3.9190209 3.9190208-3.9190209s3.9190209 1.7546025 3.9190209 3.9190209zM38.732825 32.2274478c0-1.1939752-.9679028-2.161878-2.161878-2.161878-1.1939752 0-2.161878.9679028-2.161878 2.161878 0 1.1939752.9679028 2.161878 2.161878 2.161878 1.1939752 0 2.161878-.9679028 2.161878-2.161878zm1.7571429 0c0 2.1644184-1.7546025 3.9190209-3.9190209 3.9190209-2.1644184 0-3.9190208-1.7546025-3.9190208-3.9190209 0-2.1644184 1.7546024-3.9190208 3.9190208-3.9190208s3.9190209 1.7546024 3.9190209 3.9190208z"/>
    <path d="M7.52998658 13.1632717l-.89802035-1.5103345L17.442067 5.22542704l.8980204 1.51033455zm-1.0026466 3.2298202l.95620594-1.474185 10.95126458 7.1033586-.956206 1.4741849zm.02949892 18.1215889l.89807681-1.510301 10.63679519 6.3250035-.8980768 1.510301zm26.8957653-1.4555688l.8980908 1.5102927-10.5642588 6.2820029-.8980907-1.5102927zm1.0042003-21.4078781l-.8922661 1.5137411-10.9043548-6.42751012.8922662-1.51374112zM23.537986 23.4856362l-.9562026-1.4741871 10.9252035-7.0864189.9562026 1.4741871zm13.9477283 6.4647651h-1.7571429V17.5714286h1.7571429zm-32.21428573 0H3.51428571V17.5714286h1.75714286zm16.10714283 8.5751204h-1.7571428v-11.075923h1.7571428z"/>
  </g>
</svg>
