<svg width="1505" height="883" viewBox="0 0 1505 883" xmlns="http://www.w3.org/2000/svg"><title>Combined Shape</title><path d="M834.947 290.766L934 541l-307.507-53.318L571 198l263.947 92.766zm-12.48 9.816L758 276l2.911 9.849 18.051 61.895L850 366l-27.533-65.418zM727.34 268.59L682 253l1.59 6.476 36.64 144.627 149.994 34.378L877 440l-16.313-43.492-102.98-28.382-30.366-99.536zM418.954 685.762l-55.447-289.444-.461-.08L363 396l263.947 92.766L726 739l-307.046-53.238zm515.29-144.49L934 540l263.478 92.6L1142 343l263.947 92.766L1505 686l-307.081-53.244.028.01L1297 883l-307.244-53.273-55.25-288.409-.262-.045zm207.37-198.34l-306.858-53.205-55.25-288.409-.262-.045L779 0l263.947 92.766.14.353-.387-.067 98.913 249.88zM594 223l52.806 251.212L908 525l-18.353-52.954-195.04-43.808-45.549-187.587L594 223zm-330.053-77.234L363 396 55.493 342.682 0 53l263.947 92.766z" fill="#FFF" opacity=".119"/></svg>