<svg viewBox="0 0 378 377" xmlns="http://www.w3.org/2000/svg">
  <g stroke="#222829" stroke-width="2" fill="none" fill-rule="evenodd" opacity=".5">
    <path d="M157.528 51.752l2.88 2.88M191.988 8.653l7.181-7.18M187.73 53.229L169.058 71.9a2.032 2.032 0 0 1-2.876-.003l-17.279-17.28a2.032 2.032 0 0 1-.003-2.875l20.107-20.108M219.328 21.63l-8.618 8.618"/>
    <path d="M217.93 43.272l-2.873-2.874-10.047-18.686-12.93-12.93a4.068 4.068 0 0 0-5.752.007 4.068 4.068 0 0 0-.007 5.753l-2.873-2.873a4.068 4.068 0 0 0-5.753.007 4.068 4.068 0 0 0-.007 5.753l-2.873-2.873a4.068 4.068 0 0 0-5.753.006 4.068 4.068 0 0 0-.007 5.753l2.874 2.873a4.068 4.068 0 0 0-5.753.007 4.068 4.068 0 0 0-.007 5.753l12.93 12.93M171.929 23.188l8.62 8.62M177.688 17.429l8.62 8.62M186.321 14.542l5.747 5.747M170.472 39.011a4.068 4.068 0 0 0-.006 5.753l5.746 5.747 8.626 2.866 10.067 1.427 5.746 5.746"/>
    <g>
      <path d="M220.797 51.898l-2.88 2.88M263.905 86.367l7.183 7.183M219.324 82.103l-18.676-18.676a2.032 2.032 0 0 1 .003-2.877l17.279-17.278a2.032 2.032 0 0 1 2.877-.004l20.112 20.113M250.93 113.709l-8.62-8.62"/>
    </g>
    <g>
      <path d="M229.365 111.864l2.873-2.874 18.686-10.046 12.93-12.93a4.07 4.07 0 0 0-.007-5.753 4.068 4.068 0 0 0-5.753-.006l2.873-2.874a4.068 4.068 0 0 0-.006-5.753 4.067 4.067 0 0 0-5.753-.006l2.873-2.874a4.068 4.068 0 0 0-.007-5.753 4.067 4.067 0 0 0-5.753-.006l-2.873 2.873a4.068 4.068 0 0 0-.006-5.753 4.067 4.067 0 0 0-5.754-.007l-12.93 12.93M249.448 65.862l-8.62 8.62M255.208 71.622l-8.62 8.62M258.094 80.255L252.348 86M233.626 64.406a4.068 4.068 0 0 0-5.753-.007l-5.747 5.747-2.867 8.626-1.426 10.066-5.747 5.747"/>
      <g>
        <path d="M217.859 111.85l2.88 2.88M167.548 136.243l-8.62 8.62M212.129 131.98l17.24-17.24a2.032 2.032 0 0 0-.004-2.876l-17.279-17.28a2.032 2.032 0 0 0-2.876-.003l-18.676 18.676M179.087 165.022l10.056-10.057"/>
      </g>
    </g>
    <g>
      <path d="M177.845 106.598l2.873 2.873 18.686 10.047 12.93 12.93a4.07 4.07 0 0 1-.007 5.752 4.07 4.07 0 0 1-5.753.007l2.873 2.873a4.07 4.07 0 0 1-.006 5.753 4.07 4.07 0 0 1-5.754.007l2.874 2.873a4.07 4.07 0 0 1-.007 5.753 4.07 4.07 0 0 1-5.753.007l-2.873-2.874a4.07 4.07 0 0 1-.007 5.753 4.07 4.07 0 0 1-5.753.007l-12.93-12.93M197.928 152.6l-8.62-8.62M203.687 146.84l-8.62-8.62M206.574 138.207l-5.747-5.747M182.105 154.056a4.07 4.07 0 0 1-5.753.006l-5.746-5.746-2.867-8.627-1.427-10.066-5.746-5.746"/>
      <g>
        <path d="M169.218 103.731l-2.88 2.88M137.623 63.496L127.566 53.44M137.577 103.767l20.112 20.113c.795.795 2.08.793 2.877-.003l17.279-17.28a2.032 2.032 0 0 0 .003-2.876l-18.676-18.676M107.408 73.598l7.183 7.183"/>
      </g>
    </g>
    <g>
      <path d="M149.165 54.88l-2.86 2.86-18.622 9.982-12.872 12.872c-1.58 1.58-1.572 4.15.02 5.74 1.589 1.59 4.16 1.599 5.74.02l-2.861 2.86c-1.579 1.58-1.572 4.15.02 5.74 1.59 1.59 4.16 1.599 5.74.02l-2.86 2.86c-1.58 1.58-1.572 4.15.019 5.74 1.59 1.59 4.16 1.599 5.74.02l2.86-2.86c-1.579 1.579-1.571 4.149.02 5.74 1.59 1.59 4.161 1.598 5.74.02L147.86 93.62M129.23 100.734l8.58-8.582M123.47 94.974l8.58-8.581M120.57 86.354l5.721-5.72M145.02 102.222c1.59 1.59 4.161 1.598 5.74.02l5.72-5.721 2.842-8.601 1.401-10.04 5.72-5.722"/>
    </g>
    <path d="M147.463 53.178l20.29 20.29"/>
    <g>
      <path d="M50.844 157.128l2.88 2.88M85.304 114.029l7.181-7.182M81.046 158.604l-18.672 18.671a2.032 2.032 0 0 1-2.876-.003l-17.279-17.28a2.032 2.032 0 0 1-.004-2.875l20.108-20.108M112.644 127.006l-8.618 8.618"/>
      <path d="M111.246 148.647l-2.873-2.874-10.047-18.686-12.93-12.93a4.068 4.068 0 0 0-5.752.007 4.068 4.068 0 0 0-.007 5.754l-2.873-2.874a4.068 4.068 0 0 0-5.753.007 4.068 4.068 0 0 0-.007 5.753l-2.873-2.873a4.068 4.068 0 0 0-5.753.006 4.068 4.068 0 0 0-.007 5.753l2.873 2.874a4.068 4.068 0 0 0-5.753.006 4.068 4.068 0 0 0-.006 5.753l12.93 12.93M65.244 128.564l8.62 8.62M71.004 122.804l8.62 8.62M79.637 119.918l5.746 5.746M63.788 144.386a4.068 4.068 0 0 0-.006 5.753l5.746 5.747 8.626 2.866 10.067 1.427 5.746 5.747"/>
      <g>
        <path d="M114.113 157.273l-2.88 2.88M157.221 191.742l7.183 7.183M112.64 187.478l-18.676-18.676a2.032 2.032 0 0 1 .003-2.876l17.279-17.28a2.032 2.032 0 0 1 2.876-.003l20.113 20.113M144.245 219.084l-8.62-8.62"/>
      </g>
      <g>
        <path d="M122.68 217.239l2.874-2.874 18.686-10.046 12.93-12.93a4.07 4.07 0 0 0-.007-5.753 4.068 4.068 0 0 0-5.753-.006l2.873-2.874a4.068 4.068 0 0 0-.006-5.753 4.067 4.067 0 0 0-5.753-.006l2.873-2.873a4.068 4.068 0 0 0-.007-5.753 4.067 4.067 0 0 0-5.753-.007l-2.873 2.873a4.068 4.068 0 0 0-.007-5.753 4.067 4.067 0 0 0-5.753-.006l-12.93 12.93M142.764 171.237l-8.62 8.62M148.524 176.997l-8.62 8.62M151.41 185.63l-5.746 5.746M126.941 169.78a4.068 4.068 0 0 0-5.753-.006l-5.746 5.747-2.867 8.626-1.427 10.066-5.746 5.747"/>
        <g>
          <path d="M111.175 217.225l2.88 2.88M60.863 241.618l-8.62 8.62M105.445 237.355l17.24-17.24a2.032 2.032 0 0 0-.004-2.876l-17.279-17.28a2.032 2.032 0 0 0-2.877-.003L83.85 218.633M72.402 270.397L82.46 260.34"/>
        </g>
      </g>
      <g>
        <path d="M71.16 211.973l2.874 2.873 18.686 10.047 12.93 12.93a4.07 4.07 0 0 1-.007 5.752 4.07 4.07 0 0 1-5.753.007l2.873 2.873a4.07 4.07 0 0 1-.007 5.753 4.07 4.07 0 0 1-5.753.007l2.874 2.873a4.07 4.07 0 0 1-.007 5.753 4.07 4.07 0 0 1-5.753.007l-2.873-2.874a4.07 4.07 0 0 1-.007 5.753 4.07 4.07 0 0 1-5.753.007l-12.93-12.93M91.244 257.974l-8.62-8.62M97.003 252.215l-8.62-8.62M99.89 243.582l-5.747-5.747M75.421 259.43a4.07 4.07 0 0 1-5.753.007l-5.746-5.746-2.867-8.626-1.427-10.067-5.746-5.746"/>
        <g>
          <path d="M62.534 209.106l-2.88 2.88M30.939 168.871l-10.057-10.056M30.893 209.143l20.112 20.112c.795.795 2.08.793 2.877-.003l17.279-17.279a2.032 2.032 0 0 0 .003-2.877L52.488 190.42M.724 178.973l7.183 7.184"/>
        </g>
      </g>
      <g>
        <path d="M42.48 160.255l-2.86 2.86L21 173.097 8.127 185.97c-1.58 1.58-1.572 4.15.02 5.74 1.589 1.59 4.16 1.599 5.74.02l-2.861 2.86c-1.58 1.58-1.572 4.15.02 5.74 1.589 1.59 4.16 1.599 5.74.02l-2.86 2.86c-1.58 1.58-1.573 4.15.019 5.74 1.59 1.59 4.16 1.6 5.74.02l2.86-2.86c-1.579 1.579-1.572 4.149.02 5.74 1.59 1.59 4.16 1.598 5.74.02l12.872-12.873M22.545 206.109l8.581-8.582M16.786 200.35l8.58-8.582M13.886 191.729l5.721-5.72M38.336 207.597c1.59 1.59 4.161 1.598 5.74.02l5.72-5.721 2.842-8.601 1.4-10.04 5.722-5.721"/>
      </g>
      <path d="M40.78 158.553l20.289 20.29"/>
    </g>
    <g>
      <path d="M262.903 157.128l2.88 2.88M297.363 114.029l7.181-7.182M293.105 158.604l-18.672 18.671a2.032 2.032 0 0 1-2.876-.003l-17.279-17.28a2.032 2.032 0 0 1-.003-2.875l20.107-20.108M324.703 127.006l-8.618 8.618"/>
      <path d="M323.305 148.647l-2.873-2.874-10.047-18.686-12.93-12.93a4.068 4.068 0 0 0-5.752.007 4.068 4.068 0 0 0-.007 5.754l-2.873-2.874a4.068 4.068 0 0 0-5.753.007 4.068 4.068 0 0 0-.007 5.753l-2.873-2.873a4.068 4.068 0 0 0-5.753.006 4.068 4.068 0 0 0-.007 5.753l2.874 2.874a4.068 4.068 0 0 0-5.753.006 4.068 4.068 0 0 0-.007 5.753l12.93 12.93M277.304 128.564l8.62 8.62M283.063 122.804l8.62 8.62M291.696 119.918l5.747 5.746M275.847 144.386a4.068 4.068 0 0 0-.006 5.753l5.746 5.747 8.627 2.866 10.066 1.427 5.746 5.747"/>
      <g>
        <path d="M326.172 157.273l-2.88 2.88M369.28 191.742l7.183 7.183M324.699 187.478l-18.676-18.676a2.032 2.032 0 0 1 .003-2.876l17.28-17.28a2.032 2.032 0 0 1 2.876-.003l20.112 20.113M356.305 219.084l-8.62-8.62"/>
      </g>
      <g>
        <path d="M334.74 217.239l2.873-2.874L356.3 204.32l12.93-12.93a4.07 4.07 0 0 0-.007-5.753 4.068 4.068 0 0 0-5.753-.006l2.873-2.874a4.068 4.068 0 0 0-.006-5.753 4.067 4.067 0 0 0-5.753-.006l2.873-2.873a4.068 4.068 0 0 0-.006-5.753 4.067 4.067 0 0 0-5.754-.007l-2.873 2.873a4.068 4.068 0 0 0-.006-5.753 4.067 4.067 0 0 0-5.753-.006l-12.93 12.93M354.823 171.237l-8.62 8.62M360.583 176.997l-8.62 8.62M363.47 185.63l-5.747 5.746M339 169.78a4.068 4.068 0 0 0-5.752-.006l-5.747 5.747-2.867 8.626-1.426 10.066-5.747 5.747"/>
        <g>
          <path d="M323.234 217.225l2.88 2.88M272.923 241.618l-8.62 8.62M317.504 237.355l17.24-17.24a2.032 2.032 0 0 0-.004-2.876l-17.279-17.28a2.032 2.032 0 0 0-2.876-.003l-18.676 18.677M284.462 270.397l10.056-10.056"/>
        </g>
      </g>
      <g>
        <path d="M283.22 211.973l2.873 2.873 18.686 10.047 12.93 12.93a4.07 4.07 0 0 1-.007 5.752 4.07 4.07 0 0 1-5.753.007l2.873 2.873a4.07 4.07 0 0 1-.006 5.753 4.07 4.07 0 0 1-5.753.007l2.873 2.873a4.07 4.07 0 0 1-.007 5.753 4.07 4.07 0 0 1-5.753.007l-2.873-2.874a4.07 4.07 0 0 1-.007 5.753 4.07 4.07 0 0 1-5.753.007l-12.93-12.93M303.303 257.974l-8.62-8.62M309.063 252.215l-8.62-8.62M311.949 243.582l-5.746-5.747M287.48 259.43a4.07 4.07 0 0 1-5.753.007l-5.746-5.746-2.867-8.626-1.427-10.067-5.746-5.746"/>
        <g>
          <path d="M274.594 209.106l-2.88 2.88M242.998 168.871l-10.057-10.056M242.952 209.143l20.112 20.112c.795.795 2.08.793 2.877-.003l17.279-17.279a2.032 2.032 0 0 0 .003-2.877l-18.676-18.676M212.783 178.973l7.183 7.184"/>
        </g>
      </g>
      <g>
        <path d="M254.54 160.255l-2.86 2.86-18.622 9.982-12.872 12.872c-1.579 1.58-1.572 4.15.02 5.74 1.589 1.59 4.16 1.599 5.74.02l-2.86 2.86c-1.58 1.58-1.573 4.15.019 5.74 1.59 1.59 4.16 1.599 5.74.02l-2.86 2.86c-1.58 1.58-1.572 4.15.019 5.74 1.59 1.59 4.161 1.6 5.74.02l2.86-2.86c-1.579 1.579-1.571 4.149.02 5.74 1.59 1.59 4.161 1.598 5.74.02l12.872-12.873M234.604 206.109l8.582-8.582M228.845 200.35l8.581-8.582M225.946 191.729l5.72-5.72M250.395 207.597c1.59 1.59 4.161 1.598 5.74.02l5.721-5.721 2.841-8.601 1.401-10.04 5.721-5.721"/>
      </g>
      <path d="M252.838 158.553l20.29 20.29"/>
    </g>
    <g>
      <path d="M156.22 262.503l2.879 2.88M190.679 219.404l7.181-7.182M186.42 263.979l-18.67 18.672a2.032 2.032 0 0 1-2.877-.004l-17.279-17.279a2.032 2.032 0 0 1-.003-2.876l20.107-20.108M218.019 232.381l-8.618 8.618"/>
      <path d="M216.621 254.022l-2.873-2.874-10.047-18.685-12.93-12.93a4.068 4.068 0 0 0-5.752.007 4.068 4.068 0 0 0-.007 5.753l-2.873-2.874a4.068 4.068 0 0 0-5.753.007 4.068 4.068 0 0 0-.007 5.753l-2.873-2.873a4.068 4.068 0 0 0-5.753.006 4.068 4.068 0 0 0-.007 5.753l2.874 2.874a4.068 4.068 0 0 0-5.754.006 4.068 4.068 0 0 0-.006 5.753l12.93 12.93M170.62 233.939l8.62 8.62M176.38 228.179l8.619 8.62M185.012 225.293l5.747 5.746M169.163 249.761a4.068 4.068 0 0 0-.006 5.753l5.746 5.747 8.626 2.866 10.067 1.427 5.746 5.747"/>
      <g>
        <path d="M219.488 262.648l-2.88 2.88M262.596 297.117l7.183 7.183M218.015 292.853l-18.676-18.676a2.032 2.032 0 0 1 .003-2.876l17.279-17.28a2.032 2.032 0 0 1 2.877-.003l20.112 20.113M249.62 324.459l-8.62-8.62"/>
      </g>
      <g>
        <path d="M228.056 322.614l2.873-2.874 18.686-10.046 12.93-12.93a4.07 4.07 0 0 0-.007-5.753 4.068 4.068 0 0 0-5.753-.006l2.873-2.873a4.068 4.068 0 0 0-.006-5.753 4.067 4.067 0 0 0-5.753-.007l2.873-2.873a4.068 4.068 0 0 0-.007-5.753 4.067 4.067 0 0 0-5.753-.007l-2.873 2.873a4.068 4.068 0 0 0-.006-5.753 4.067 4.067 0 0 0-5.754-.006l-12.93 12.93M248.14 276.612l-8.62 8.62M253.899 282.372l-8.62 8.62M256.785 291.005l-5.746 5.746M232.317 275.156a4.068 4.068 0 0 0-5.754-.007l-5.746 5.747-2.867 8.626-1.426 10.066-5.747 5.747"/>
        <g>
          <path d="M216.55 322.6l2.88 2.88M166.239 346.994l-8.62 8.62M210.82 342.73l17.24-17.24a2.032 2.032 0 0 0-.004-2.876l-17.279-17.28a2.032 2.032 0 0 0-2.876-.002l-18.676 18.676M177.778 375.772l10.056-10.056"/>
        </g>
      </g>
      <g>
        <path d="M176.536 317.348l2.873 2.873 18.686 10.047 12.93 12.93a4.07 4.07 0 0 1-.007 5.752 4.07 4.07 0 0 1-5.753.007l2.873 2.873a4.07 4.07 0 0 1-.006 5.753 4.07 4.07 0 0 1-5.754.007l2.874 2.873a4.07 4.07 0 0 1-.007 5.753 4.07 4.07 0 0 1-5.753.007l-2.873-2.873a4.07 4.07 0 0 1-.007 5.753 4.07 4.07 0 0 1-5.753.006l-12.93-12.93M196.619 363.35l-8.62-8.62M202.378 357.59l-8.62-8.62M205.265 348.957l-5.747-5.746M180.796 364.806a4.07 4.07 0 0 1-5.753.006l-5.746-5.746-2.867-8.626-1.427-10.067-5.746-5.746"/>
        <g>
          <path d="M167.91 314.481l-2.88 2.88M136.314 274.246l-10.057-10.056M136.268 314.518l20.112 20.112c.795.795 2.08.793 2.877-.003l17.279-17.279a2.032 2.032 0 0 0 .003-2.876l-18.676-18.676M106.099 284.349l7.183 7.183"/>
        </g>
      </g>
      <g>
        <path d="M147.856 265.63l-2.86 2.86-18.622 9.983-12.872 12.872c-1.58 1.578-1.572 4.149.02 5.74 1.589 1.59 4.16 1.598 5.74.02l-2.861 2.86c-1.579 1.579-1.572 4.149.02 5.74 1.59 1.59 4.16 1.598 5.74.02l-2.86 2.86c-1.58 1.579-1.572 4.149.019 5.74 1.59 1.59 4.16 1.598 5.74.02l2.86-2.861c-1.579 1.579-1.571 4.149.02 5.74 1.59 1.59 4.161 1.598 5.74.02l12.872-12.872M127.92 311.484l8.582-8.581M122.16 305.724l8.582-8.581M119.261 297.104l5.721-5.72M143.71 312.972c1.59 1.59 4.162 1.599 5.741.02l5.72-5.721 2.842-8.6 1.401-10.041 5.72-5.721"/>
      </g>
      <path d="M146.154 263.928l20.29 20.29"/>
    </g>
    <g stroke-linecap="square">
      <path d="M271.164 93.757l20.29 20.29M250.875 113.392l20.29 20.29M212.914 138.918l20.29 20.29M191.97 158.553l20.29 20.29"/>
    </g>
    <g stroke-linecap="square">
      <path d="M283.927 270.8l-20.29 20.29M263.965 250.183l-20.29 20.29M238.44 212.222l-20.29 20.29M218.804 191.278l-20.29 20.29"/>
    </g>
    <g stroke-linecap="square">
      <path d="M179.207 165.425l-20.29 20.29M159.244 144.808l-20.29 20.29M133.719 106.847l-20.29 20.29M114.084 85.903l-20.29 20.29"/>
    </g>
    <g stroke-linecap="square">
      <path d="M164.48 199.132l20.29 20.29M144.19 218.767l20.29 20.29M106.23 244.293l20.29 20.29M85.285 263.928l20.29 20.29"/>
    </g>
  </g>
</svg>
