<?xml version="1.0" encoding="UTF-8"?>
<svg width="32px" height="30px" viewBox="0 0 32 30" version="1.1" xmlns="http://www.w3.org/2000/svg" xmlns:xlink="http://www.w3.org/1999/xlink">
    <!-- Generator: Sketch 48.2 (47327) - http://www.bohemiancoding.com/sketch -->
    <title>icon-gasused</title>
    <desc>Created with Sketch.</desc>
    <defs></defs>
    <g id="icon-gasused" stroke="none" stroke-width="1" fill="none" fill-rule="evenodd">
        <path d="M20,27.6664 L21,27.6664 L21,26.6664 L20,26.6664 L20,27.6664 Z M22,27.6664 L23,27.6664 L23,26.6664 L22,26.6664 L22,27.6664 Z M16,27.6664 L17,27.6664 L17,26.6664 L16,26.6664 L16,27.6664 Z M18,27.6664 L19,27.6664 L19,26.6664 L18,26.6664 L18,27.6664 Z M12,27.6664 L13,27.6664 L13,26.6664 L12,26.6664 L12,27.6664 Z M14,27.6664 L15,27.6664 L15,26.6664 L14,26.6664 L14,27.6664 Z M8,27.6664 L9,27.6664 L9,26.6664 L8,26.6664 L8,27.6664 Z M10,27.6664 L11,27.6664 L11,26.6664 L10,26.6664 L10,27.6664 Z M6.856,25.8914 L7.478,25.1074 C5.295,23.3804 4.182,21.1564 4.167,18.4964 C4.153,16.0864 4.836,14.6054 5.626,12.8924 C6.453,11.0974 7.377,9.0944 7.61,5.6954 C7.9,6.1054 8.201,6.4874 8.496,6.8634 C9.707,8.4044 10.851,9.8604 11.17,13.0494 C11.196,13.3134 11.392,13.5504 11.692,13.4984 C11.958,13.4854 12.167,13.2664 12.167,12.9994 C12.167,10.8854 12.825,9.7334 13.587,8.4004 C14.496,6.8094 15.52,5.0194 15.652,1.3264 C16.883,2.0504 19.43,3.8504 20.532,6.8544 C21.456,9.3714 21.181,12.2074 19.716,15.2844 C19.629,15.4654 19.659,15.6804 19.792,15.8304 C19.925,15.9804 20.135,16.0344 20.325,15.9744 C20.369,15.9594 24.276,14.6024 25.039,10.0804 C26.486,12.6314 27.167,14.8564 27.167,16.9994 C27.167,19.8484 25.87,22.5894 23.313,25.1454 L24.021,25.8534 C26.771,23.1024 28.167,20.1224 28.167,16.9994 C28.167,14.2984 27.188,11.5114 25.088,8.2294 C24.968,8.0424 24.741,7.9564 24.526,8.0204 C24.313,8.0814 24.167,8.2774 24.167,8.4994 C24.167,11.8604 22.404,13.6104 21.172,14.4244 C22.256,11.5834 22.357,8.9264 21.471,6.5114 C19.853,2.1024 15.555,0.1254 15.372,0.0434 C15.218,-0.0246 15.037,-0.0126 14.896,0.0794 C14.753,0.1714 14.667,0.3294 14.667,0.4994 C14.667,4.4954 13.677,6.2294 12.719,7.9044 C12.3,8.6364 11.894,9.3474 11.603,10.2004 C11.025,8.4644 10.144,7.3424 9.282,6.2464 C8.67,5.4664 8.092,4.7304 7.614,3.7754 C7.511,3.5684 7.282,3.4544 7.052,3.5134 C6.826,3.5654 6.667,3.7684 6.667,3.9994 C6.667,8.2454 5.676,10.3954 4.718,12.4744 C3.912,14.2204 3.152,15.8694 3.167,18.5024 C3.184,21.4804 4.425,23.9674 6.856,25.8914 Z M20.667,21.4994 C20.667,20.1334 19.951,19.2294 19.26,18.3564 C18.261,17.0964 17.317,15.9054 18.146,13.1434 C18.2,12.9614 18.147,12.7644 18.009,12.6344 C17.87,12.5054 17.672,12.4654 17.491,12.5314 C15.696,13.2044 14.444,14.4004 13.87,15.9894 C13.274,17.6394 13.461,19.6324 14.371,21.5544 C14.148,21.5234 13.887,21.4464 13.612,21.2794 C12.693,20.7224 12.018,19.3834 11.659,17.4094 C11.626,17.2274 11.493,17.0774 11.316,17.0214 C11.135,16.9684 10.943,17.0134 10.813,17.1454 C9.476,18.4834 8.58,22.4914 10.221,25.7264 L11.113,25.2724 C9.953,22.9874 10.274,20.2794 10.942,18.7674 C11.406,20.4334 12.138,21.5684 13.124,22.1524 C14.249,22.8194 15.283,22.4874 15.325,22.4744 C15.467,22.4264 15.581,22.3174 15.634,22.1784 C15.688,22.0374 15.676,21.8814 15.602,21.7514 C14.531,19.8784 14.243,17.9014 14.811,16.3284 C15.182,15.3024 15.91,14.4704 16.94,13.8864 C16.486,16.4684 17.579,17.8464 18.476,18.9784 C19.115,19.7844 19.667,20.4804 19.667,21.4994 C19.667,22.8784 18.704,24.7554 18.313,25.1454 L19.021,25.8534 C19.586,25.2874 20.667,23.1524 20.667,21.4994 Z M0,29.6664 L32,29.6664 L32,28.6664 L0,28.6664 L0,29.6664 Z" fill="#FFFFFF"></path>
    </g>
</svg>