<?xml version="1.0" encoding="UTF-8"?>
<svg width="28px" height="32px" viewBox="0 0 28 32" version="1.1" xmlns="http://www.w3.org/2000/svg" xmlns:xlink="http://www.w3.org/1999/xlink">
    <!-- Generator: Sketch 48.2 (47327) - http://www.bohemiancoding.com/sketch -->
    <title>icon-value</title>
    <desc>Created with Sketch.</desc>
    <defs></defs>
    <g id="icon-value" stroke="none" stroke-width="1" fill="none" fill-rule="evenodd">
        <path d="M15.044,18.937 L14.086,19.223 L16.153,26.138 L23.465,27.481 L23.646,26.498 L16.937,25.265 L15.044,18.937 Z M21.182,23.466 L21.431,22.499 L19.977,22.125 L19.539,20.699 L18.583,20.993 L19.186,22.953 L21.182,23.466 Z M22.581,25.534 L22.79,24.555 L18.472,23.632 L17.327,19.9 L16.371,20.194 L17.689,24.488 L22.581,25.534 Z M18.25,31 C14.329,31 9.75,29.166 9.75,23.999 C9.75,21.401 11.608,19.193 13.248,17.245 C13.934,16.427 14.578,15.655 15.05,14.903 L15.379,14.985 C15.418,14.995 15.459,14.999 15.5,14.999 L21.5,14.999 C21.504,14.999 21.507,14.999 21.51,14.999 C21.977,15.719 22.593,16.46 23.25,17.243 C24.891,19.191 26.75,21.4 26.75,23.999 C26.75,29.166 22.171,31 18.25,31 Z M11.621,13.014 C11.582,13.004 11.541,13 11.5,13 L10,13 L10,5.999 L10.75,5.999 C10.883,5.999 11.01,5.947 11.104,5.853 L13.996,2.96 L16.237,2.511 L16.609,3.999 L16,3.999 L16,4.999 L22.5,4.999 C22.775,4.999 23,5.224 23,5.499 L23,5.999 C23,6.024 22.989,6.044 22.986,6.068 C22.913,6.028 22.834,5.999 22.75,5.999 L21,5.999 L21,6.999 L22.5,6.999 L22.5,7.499 C22.656,7.499 22.805,7.468 22.947,7.423 C23.059,7.579 23.09,7.693 23.044,7.793 C23.016,7.858 23,7.928 23,7.999 L23,8.499 C23,8.571 23.016,8.641 23.044,8.706 C23.092,8.81 23.064,8.854 23.052,8.873 C23.013,8.933 22.901,8.999 22.75,8.999 L21,8.999 L21,9.999 L22.5,9.999 L22.5,10.499 C22.775,10.499 23,10.724 23,11 L23,11.5 C23,11.742 22.823,11.935 22.594,11.98 C22.32,11.686 21.933,11.5 21.5,11.5 L21.5,12 L21,12 L21,13 L22,13 L22,13.5 C22,13.775 21.775,14 21.5,14 L15.562,14 L11.621,13.014 Z M20.609,1 L19.859,3.999 L17.641,3.999 L16.891,1 L20.609,1 Z M24.016,16.598 C23.436,15.91 22.889,15.253 22.467,14.636 C22.79,14.361 23,13.957 23,13.5 L23,13 C23,12.969 22.992,12.941 22.991,12.91 C23.576,12.706 24,12.154 24,11.5 L24,11 C24,10.525 23.773,10.105 23.428,9.831 C23.617,9.73 23.779,9.589 23.893,9.415 C24.085,9.116 24.122,8.753 24,8.405 L24,8.096 C24.174,7.607 24.01,7.185 23.749,6.828 C23.907,6.59 24,6.306 24,5.999 L24,5.499 C24,4.672 23.327,3.999 22.5,3.999 L20.891,3.999 L21.735,0.621 C21.773,0.471 21.739,0.313 21.645,0.192 C21.55,0.071 21.404,0 21.25,0 L16.25,0 C16.096,0 15.95,0.071 15.856,0.192 C15.761,0.313 15.728,0.471 15.765,0.621 L15.994,1.541 L13.652,2.009 C13.555,2.029 13.466,2.076 13.397,2.146 L10.543,4.999 L10,4.999 C10,4.448 9.552,3.999 9,3.999 L0,3.999 L0,4.999 L9,4.999 L9,14 L2,14 L2,14.999 L9,14.999 C9.552,14.999 10,14.551 10,14 L11.439,14 L14.025,14.646 C13.605,15.261 13.06,15.915 12.482,16.6 C10.733,18.68 8.75,21.037 8.75,23.999 C8.75,28.859 12.479,32 18.25,32 C24.022,32 27.75,28.859 27.75,23.999 C27.75,21.036 25.766,18.678 24.016,16.598 Z M5,13 L6,13 L6,12 L5,12 L5,13 Z M7,13 L8,13 L8,12 L7,12 L7,13 Z" fill="#FFFFFF"></path>
    </g>
</svg>