<?xml version="1.0" encoding="UTF-8"?>
<svg width="32px" height="32px" viewBox="0 0 32 32" version="1.1" xmlns="http://www.w3.org/2000/svg" xmlns:xlink="http://www.w3.org/1999/xlink">
    <!-- Generator: Sketch 48.2 (47327) - http://www.bohemiancoding.com/sketch -->
    <title>icon-to</title>
    <desc>Created with Sketch.</desc>
    <defs></defs>
    <g id="icon-to" stroke="none" stroke-width="1" fill="none" fill-rule="evenodd">
        <path d="M20,1.03030303 L20,6 L8,6 L8,1.03030303 L6,1.03030303 L6,16.2735503 L11,21.2735503 L10.2735503,22 L5.27355029,17 L5,17 L5,16.7264497 L1,12.7264497 L1,30.4477724 L16,19 L31,30.4477724 L31,12.7264497 L27,16.7264497 L27,17 L26.7264497,17 L21.7264497,22 L21,21.2735503 L26,16.2735503 L26,6 L22,6 L22,1.03030303 L20,1.03030303 Z M23.1111111,1.8733154 L23.1111111,4.88888889 L26,4.88888889 L26,4.84974638 L23.1111111,1.8733154 Z M30.2735503,12 L28,12 L28,11 L32,11 L32,32 L0,32 L0,11 L4,11 L4,12 L1.72644971,12 L5,15.2735503 L5,0 L22.7071068,0 L27,4.42298089 L27,15.2735503 L30.2735503,12 Z M1.92998209,31 L30.0700179,31 L16,20.2619758 L1.92998209,31 Z M16,30 L16,29 L17,29 L17,30 L16,30 Z M18,30 L18,29 L19,29 L19,30 L18,30 Z M14,30 L14,29 L15,29 L15,30 L14,30 Z M9,5 L19,5 L19,1 L9,1 L9,5 Z M10,3 L10,2 L11,2 L11,3 L10,3 Z M12,3 L12,2 L13,2 L13,3 L12,3 Z M14,3 L14,2 L15,2 L15,3 L14,3 Z M8,8 L8,7 L24,7 L24,8 L8,8 Z M8,10 L8,9 L24,9 L24,10 L8,10 Z M8,12 L8,11 L24,11 L24,12 L8,12 Z M8,14 L8,13 L24,13 L24,14 L8,14 Z M8,16 L8,15 L24,15 L24,16 L8,16 Z" fill="#FFFFFF" fill-rule="nonzero"></path>
    </g>
</svg>