<?xml version="1.0" encoding="UTF-8"?>
<svg width="32px" height="29px" viewBox="0 0 32 29" version="1.1" xmlns="http://www.w3.org/2000/svg" xmlns:xlink="http://www.w3.org/1999/xlink">
    <!-- Generator: Sketch 48.2 (47327) - http://www.bohemiancoding.com/sketch -->
    <title>icon-height</title>
    <desc>Created with Sketch.</desc>
    <defs></defs>
    <g id="icon-height" stroke="none" stroke-width="1" fill="none" fill-rule="evenodd">
        <path d="M9,1 L10,1 L10,0 L9,0 L9,1 Z M0,4 L8,4 L8,1 L0,1 L0,4 Z M1,3 L7,3 L7,2 L1,2 L1,3 Z M9,3 L10,3 L10,2 L9,2 L9,3 Z M21,5 L22,5 L22,4 L21,4 L21,5 Z M9,5 L10,5 L10,4 L9,4 L9,5 Z M11,9 L20,9 L20,4.999 L11,4.999 L11,9 Z M12,8.001 L19,8.001 L19,6 L12,6 L12,8.001 Z M0,8 L8,8 L8,4.999 L0,4.999 L0,8 Z M1,7.001 L7,7.001 L7,6 L1,6 L1,7.001 Z M21,7 L22,7 L22,5.999 L21,5.999 L21,7 Z M9,7 L10,7 L10,5.999 L9,5.999 L9,7 Z M21,9 L22,9 L22,8 L21,8 L21,9 Z M9,9 L10,9 L10,8 L9,8 L9,9 Z M23,11.723 L23,16.278 L27,18.777 L27,19 L27.356,19 L27.5,19.09 L27.643,19 L28,19 L28,18.777 L32,16.278 L32,11.723 L27.5,8.91 L23,11.723 Z M24.443,12 L27.5,10.09 L30.557,12 L27.5,13.911 L24.443,12 Z M31,12.903 L31,15.722 L28,17.598 L28,15 L27.643,15 L31,12.903 Z M24,15.722 L24,12.903 L27.356,15 L27,15 L27,17.598 L24,15.722 Z M0,12 L8,12 L8,9 L0,9 L0,12 Z M1,11 L7,11 L7,10 L1,10 L1,11 Z M21,11 L22,11 L22,10 L21,10 L21,11 Z M11,14 L20,14 L20,10 L11,10 L11,14 Z M12,13 L19,13 L19,11 L12,11 L12,13 Z M9,11 L10,11 L10,10 L9,10 L9,11 Z M21,13 L22,13 L22,12 L21,12 L21,13 Z M9,13 L10,13 L10,12 L9,12 L9,13 Z M0,16 L8,16 L8,12.999 L0,12.999 L0,16 Z M1,15 L7,15 L7,14 L1,14 L1,15 Z M21,15 L22,15 L22,14 L21,14 L21,15 Z M9,15 L10,15 L10,14 L9,14 L9,15 Z M11,19 L20,19 L20,14.999 L11,14.999 L11,19 Z M12,18 L19,18 L19,16 L12,16 L12,18 Z M21,17 L22,17 L22,16 L21,16 L21,17 Z M9,17 L10,17 L10,16 L9,16 L9,17 Z M0,20 L8,20 L8,17 L0,17 L0,20 Z M1,19 L7,19 L7,18 L1,18 L1,19 Z M21,19 L22,19 L22,18 L21,18 L21,19 Z M9,19 L10,19 L10,18 L9,18 L9,19 Z M21,21 L22,21 L22,20 L21,20 L21,21 Z M11,24 L20,24 L20,20 L11,20 L11,24 Z M12,23 L19,23 L19,21 L12,21 L12,23 Z M9,21 L10,21 L10,20 L9,20 L9,21 Z M0,24 L8,24 L8,21 L0,21 L0,24 Z M1,23 L7,23 L7,22 L1,22 L1,23 Z M21,23 L22,23 L22,22 L21,22 L21,23 Z M9,23 L10,23 L10,22 L9,22 L9,23 Z M21,25 L22,25 L22,23.999 L21,23.999 L21,25 Z M9,25 L10,25 L10,23.999 L9,23.999 L9,25 Z M0,28 L8,28 L8,25 L0,25 L0,28 Z M1,27 L7,27 L7,26 L1,26 L1,27 Z M9,27 L10,27 L10,26 L9,26 L9,27 Z M9,29 L10,29 L10,28 L9,28 L9,29 Z" fill="#FFFFFF"></path>
    </g>
</svg>