<?xml version="1.0" encoding="UTF-8"?>
<svg width="31px" height="32px" viewBox="0 0 31 32" version="1.1" xmlns="http://www.w3.org/2000/svg" xmlns:xlink="http://www.w3.org/1999/xlink">
    <!-- Generator: Sketch 48.2 (47327) - http://www.bohemiancoding.com/sketch -->
    <title>icon-block</title>
    <desc>Created with Sketch.</desc>
    <defs></defs>
    <g id="icon-block" stroke="none" stroke-width="1" fill="none" fill-rule="evenodd">
        <path d="M9,12.71 L15,16.139 L15,8.79 L9,5.361 L9,12.71 Z M17.5072765,18.9998723 L23.500525,22.4245857 L29.4932486,19.0001722 L23.5,15.5766 L17.5072765,18.9998723 Z M16.2800547,18.5505687 L23.252,14.5666 C23.405,14.4786 23.595,14.4786 23.748,14.5666 L30.7255925,18.5537957 C30.7341697,18.5581371 30.742643,18.5627387 30.751,18.5676 C30.905,18.6576 31,18.8226 31,18.9996 L31,27.4996 C31,27.6796 30.904,27.8456 30.748,27.9336 L23.7737006,31.918914 C23.7662849,31.9237924 23.7587165,31.9284904 23.751,31.933 C23.674,31.978 23.587,32 23.5,32 C23.414,32 23.328,31.979 23.252,31.934 L16.252,27.934 C16.096,27.846 16,27.68 16,27.5 L16,19 C16,18.822 16.095,18.657 16.249,18.567 C16.2591863,18.5611412 16.2695454,18.5556636 16.2800547,18.5505687 Z M24,23.289623 L24,30.6390606 L30,27.2096 L30,19.8616 L24,23.289623 Z M1.50727651,18.9998723 L7.500525,22.4245857 L13.4932486,19.0001722 L7.5,15.5766 L1.50727651,18.9998723 Z M0.280054704,18.5505687 L7.252,14.5666 C7.405,14.4786 7.595,14.4786 7.748,14.5666 L14.7267131,18.5544361 C14.7349017,18.5585888 14.7430007,18.5629771 14.751,18.5676 C14.905,18.6576 15,18.8226 15,18.9996 L15,27.4996 C15,27.6796 14.904,27.8456 14.748,27.9336 L7.77370057,31.918914 C7.76628486,31.9237924 7.7587165,31.9284904 7.751,31.933 C7.674,31.978 7.587,32 7.5,32 C7.414,32 7.328,31.979 7.252,31.934 L0.252,27.934 C0.096,27.846 0,27.68 0,27.5 L0,19 C0,18.822 0.095,18.657 0.249,18.567 C0.259186275,18.5611412 0.269545417,18.5556636 0.280054704,18.5505687 Z M8,23.289623 L8,30.6390606 L14,27.2096 L14,19.8616 L8,23.289623 Z M9.50727651,4.49987229 L15.500525,7.92458571 L21.4932486,4.50017224 L15.5,1.0766 L9.50727651,4.49987229 Z M8.2800547,4.05056874 L15.252,0.0666 C15.405,-0.0214 15.595,-0.0214 15.748,0.0666 L22.7255925,4.05379574 C22.7341697,4.05813706 22.742643,4.06273875 22.751,4.0676 C22.905,4.1576 23,4.3226 23,4.4996 L23,12.9996 C23,13.1796 22.904,13.3456 22.748,13.4336 L15.7737006,17.418914 C15.7662849,17.4237924 15.7587165,17.4284904 15.751,17.433 C15.674,17.478 15.587,17.5 15.5,17.5 C15.414,17.5 15.328,17.479 15.252,17.434 L8.252,13.434 C8.096,13.346 8,13.18 8,13 L8,4.5 C8,4.322 8.095,4.157 8.249,4.067 C8.25918628,4.06114123 8.26954542,4.05566365 8.2800547,4.05056874 Z M16,8.78962303 L16,16.1390606 L22,12.7096 L22,5.3616 L16,8.78962303 Z M1,27.21 L7,30.639 L7,23.29 L1,19.861 L1,27.21 Z M17,27.21 L23,30.639 L23,23.29 L17,19.861 L17,27.21 Z M25,13.5 C24.449,13.5 24,13.051 24,12.5 C24,11.949 24.449,11.5 25,11.5 C25.551,11.5 26,11.949 26,12.5 C26,13.051 25.551,13.5 25,13.5 Z M6,13.5 C5.449,13.5 5,13.051 5,12.5 C5,11.949 5.449,11.5 6,11.5 C6.551,11.5 7,11.949 7,12.5 C7,13.051 6.551,13.5 6,13.5 Z M15.5,31 C14.949,31 14.5,30.551 14.5,30 C14.5,29.449 14.949,29 15.5,29 C16.051,29 16.5,29.449 16.5,30 C16.5,30.551 16.051,31 15.5,31 Z" fill="#FFFFFF"></path>
    </g>
</svg>