<?xml version="1.0" encoding="UTF-8"?>
<svg width="30px" height="32px" viewBox="0 0 30 32" version="1.1" xmlns="http://www.w3.org/2000/svg" xmlns:xlink="http://www.w3.org/1999/xlink">
    <!-- Generator: Sketch 48.2 (47327) - http://www.bohemiancoding.com/sketch -->
    <title>icon-time</title>
    <desc>Created with Sketch.</desc>
    <defs></defs>
    <g id="icon-time" stroke="none" stroke-width="1" fill="none" fill-rule="evenodd">
        <path d="M15,8 L16,8 L16,7 L15,7 L15,8 Z M15,28 L16,28 L16,27 L15,27 L15,28 Z M8,25 L9,25 L9,24 L8,24 L8,25 Z M22,11 L23,11 L23,10 L22,10 L22,11 Z M22,25 L23,25 L23,24 L22,24 L22,25 Z M8,11 L9,11 L9,10 L8,10 L8,11 Z M5,18 L6,18 L6,17 L5,17 L5,18 Z M25,18 L26,18 L26,17 L25,17 L25,18 Z M16,17 C16,17.552 15.552,18 15,18 C14.448,18 14,17.552 14,17 C14,16.448 14.448,16 15,16 C15.552,16 16,16.448 16,17 Z M13,17 C13,18.103 13.897,19 15,19 C16.103,19 17,18.103 17,17 C17,15.897 16.103,15 15,15 C13.897,15 13,15.897 13,17 Z M2.5,5.293 L1.707,4.5 L3,3.207 L3.793,4 L2.5,5.293 Z M27,3.207 L28.293,4.5 L27.5,5.293 L26.207,4 L27,3.207 Z M25.694,6.513 L26.5,5.707 L27.146,6.354 C27.244,6.451 27.372,6.5 27.5,6.5 C27.628,6.5 27.756,6.451 27.854,6.354 L29.354,4.854 C29.549,4.658 29.549,4.342 29.354,4.146 L27.354,2.146 C27.158,1.951 26.842,1.951 26.646,2.146 L25.146,3.646 C24.951,3.842 24.951,4.158 25.146,4.354 L25.793,5 L24.972,5.821 C23.325,4.346 21.351,3.212 19.137,2.578 L18.861,3.539 C24.831,5.249 29,10.784 29,17 C29,24.72 22.72,31 15,31 C7.28,31 1,24.72 1,17 C1,10.784 5.169,5.248 11.138,3.539 L10.862,2.578 C8.648,3.212 6.675,4.346 5.028,5.821 L4.207,5 L4.854,4.354 C5.049,4.158 5.049,3.842 4.854,3.646 L3.354,2.146 C3.158,1.951 2.842,1.951 2.646,2.146 L0.646,4.146 C0.451,4.342 0.451,4.658 0.646,4.854 L2.146,6.354 C2.244,6.451 2.372,6.5 2.5,6.5 C2.628,6.5 2.756,6.451 2.854,6.354 L3.5,5.707 L4.306,6.513 C1.625,9.258 0,12.993 0,17 C0,25.271 6.729,32 15,32 C23.271,32 30,25.271 30,17 C30,12.993 28.375,9.258 25.694,6.513 Z M13,1 L17,1 L17,3 L15.5,3 C15.224,3 15,3.224 15,3.5 C15,3.224 14.776,3 14.5,3 L13,3 L13,1 Z M26.5,17 C26.5,23.341 21.341,28.5 15,28.5 C8.659,28.5 3.5,23.341 3.5,17 C3.5,10.659 8.659,5.5 15,5.5 C21.341,5.5 26.5,10.659 26.5,17 Z M12.5,4 L14,4 L14,4.551 C7.574,5.063 2.5,10.445 2.5,17 C2.5,23.893 8.107,29.5 15,29.5 C21.893,29.5 27.5,23.893 27.5,17 C27.5,10.445 22.426,5.063 16,4.551 L16,4 L17.5,4 C17.776,4 18,3.776 18,3.5 L18,0.5 C18,0.224 17.776,0 17.5,0 L12.5,0 C12.224,0 12,0.224 12,0.5 L12,3.5 C12,3.776 12.224,4 12.5,4 Z M17,18 L23,18 L23,17 L17,17 L17,18 Z" fill="#FFFFFF"></path>
    </g>
</svg>