<?xml version="1.0" encoding="UTF-8"?>
<svg width="32px" height="32px" viewBox="0 0 32 32" version="1.1" xmlns="http://www.w3.org/2000/svg" xmlns:xlink="http://www.w3.org/1999/xlink">
    <!-- Generator: Sketch 48.2 (47327) - http://www.bohemiancoding.com/sketch -->
    <title>icon-totaldifficulty</title>
    <desc>Created with Sketch.</desc>
    <defs></defs>
    <g id="icon-totaldifficulty" stroke="none" stroke-width="1" fill="none" fill-rule="evenodd">
        <path d="M27,10.5 L27,8 L26,8 L26,10.5 C26,11.327 25.327,12 24.5,12 L23,12 L23,13 L24.5,13 C25.879,13 27,11.879 27,10.5 Z M20,21.5 C20,21.775 19.775,22 19.5,22 L12.5,22 C12.225,22 12,21.775 12,21.5 L12,15.5 C12,15.225 12.225,15 12.5,15 L19.5,15 C19.775,15 20,15.225 20,15.5 L20,21.5 Z M13,12.5 C13,11.121 14.121,10 15.5,10 L16.5,10 C17.879,10 19,11.121 19,12.5 L19,14 L13,14 L13,12.5 Z M6,27 C5.447,27 5,26.553 5,26 C5,25.447 5.447,25 6,25 C6.553,25 7,25.447 7,26 C7,26.553 6.553,27 6,27 Z M20,14.092 L20,12.5 C20,10.57 18.43,9 16.5,9 L15.5,9 C13.57,9 12,10.57 12,12.5 L12,14.092 C11.419,14.299 11,14.849 11,15.5 L11,19 L8.5,19 C7.121,19 6,20.121 6,21.5 L6,24 C4.897,24 4,24.897 4,26 C4,27.103 4.897,28 6,28 C7.103,28 8,27.103 8,26 C8,25.264 7.595,24.625 7,24.278 L7,21.5 C7,20.673 7.673,20 8.5,20 L11,20 L11,21.5 C11,22.327 11.673,23 12.5,23 L19.5,23 C20.327,23 21,22.327 21,21.5 L21,15.5 C21,14.849 20.581,14.299 20,14.092 Z M26,7 C25.447,7 25,6.553 25,6 C25,5.447 25.447,5 26,5 C26.553,5 27,5.447 27,6 C27,6.553 26.553,7 26,7 Z M28,6 C28,4.897 27.103,4 26,4 C24.897,4 24,4.897 24,6 C24,7.103 24.897,8 26,8 C27.103,8 28,7.103 28,6 Z M26,27 C25.447,27 25,26.553 25,26 C25,25.447 25.447,25 26,25 C26.553,25 27,25.447 27,26 C27,26.553 26.553,27 26,27 Z M27,24.278 L27,21.5 C27,20.121 25.879,19 24.5,19 L23,19 L23,20 L24.5,20 C25.327,20 26,20.673 26,21.5 L26,24 C24.897,24 24,24.897 24,26 C24,27.103 24.897,28 26,28 C27.103,28 28,27.103 28,26 C28,25.264 27.595,24.625 27,24.278 Z M30,17 C29.447,17 29,16.553 29,16 C29,15.447 29.447,15 30,15 C30.553,15 31,15.447 31,16 C31,16.553 30.553,17 30,17 Z M30,14 C28.897,14 28,14.897 28,16 L24,16 L24,17 L28.278,17 C28.625,17.595 29.264,18 30,18 C31.103,18 32,17.103 32,16 C32,14.897 31.103,14 30,14 Z M16,18 L16,17.999 L16.5,18 L16,18 Z M16,16.5 C15.448,16.5 15,16.948 15,17.5 C15,18.052 15.448,18.5 16,18.5 L16,21 L17,21 L17,18 L16.847,18 C16.936,17.851 17,17.686 17,17.5 C17,16.948 16.552,16.5 16,16.5 Z M19,7 C18.447,7 18,6.553 18,6 C18,5.447 18.447,5 19,5 C19.553,5 20,5.447 20,6 C20,6.553 19.553,7 19,7 Z M20,4.278 L20,0 L19,0 L19,4 C17.897,4 17,4.897 17,6 C17,7.103 17.897,8 19,8 C20.103,8 21,7.103 21,6 C21,5.264 20.595,4.625 20,4.278 Z M22,17 L23,17 L23,16 L22,16 L22,17 Z M13,5 C13.553,5 14,5.447 14,6 C14,6.553 13.553,7 13,7 C12.447,7 12,6.553 12,6 C12,5.447 12.447,5 13,5 Z M13,8 C14.103,8 15,7.103 15,6 C15,5.264 14.595,4.625 14,4.278 L14,0 L13,0 L13,4 C11.897,4 11,4.897 11,6 C11,7.103 11.897,8 13,8 Z M2,17 C1.447,17 1,16.553 1,16 C1,15.447 1.447,15 2,15 C2.553,15 3,15.447 3,16 C3,16.553 2.553,17 2,17 Z M2,14 C0.897,14 0,14.897 0,16 C0,17.103 0.897,18 2,18 C3.103,18 4,17.103 4,16 C4,14.897 3.103,14 2,14 Z M4,17 L8,17 L8,16 L4,16 L4,17 Z M9,17 L10,17 L10,16 L9,16 L9,17 Z M6,5 C6.553,5 7,5.447 7,6 C7,6.553 6.553,7 6,7 C5.447,7 5,6.553 5,6 C5,5.447 5.447,5 6,5 Z M6,8 C7.103,8 8,7.103 8,6 C8,4.897 7.103,4 6,4 C4.897,4 4,4.897 4,6 C4,7.103 4.897,8 6,8 Z M8.5,13 L11,13 L11,12 L8.5,12 C7.673,12 7,11.327 7,10.5 L7,8 L6,8 L6,10.5 C6,11.879 7.121,13 8.5,13 Z M13,32 L14,32 L14,28 L13,28 L13,32 Z M19,27 C18.447,27 18,26.553 18,26 C18,25.447 18.447,25 19,25 C19.553,25 20,25.447 20,26 C20,26.553 19.553,27 19,27 Z M19,24 C17.897,24 17,24.897 17,26 C17,27.103 17.897,28 19,28 C20.103,28 21,27.103 21,26 C21,24.897 20.103,24 19,24 Z M19,32 L20,32 L20,28 L19,28 L19,32 Z M13,27 C12.447,27 12,26.553 12,26 C12,25.447 12.447,25 13,25 C13.553,25 14,25.447 14,26 C14,26.553 13.553,27 13,27 Z M13,24 C11.897,24 11,24.897 11,26 C11,27.103 11.897,28 13,28 C14.103,28 15,27.103 15,26 C15,24.897 14.103,24 13,24 Z" fill="#FFFFFF"></path>
    </g>
</svg>