<?xml version="1.0" encoding="UTF-8"?>
<svg width="32px" height="32px" viewBox="0 0 32 32" version="1.1" xmlns="http://www.w3.org/2000/svg" xmlns:xlink="http://www.w3.org/1999/xlink">
    <!-- Generator: Sketch 48.2 (47327) - http://www.bohemiancoding.com/sketch -->
    <title>icon-sha3uncles</title>
    <desc>Created with Sketch.</desc>
    <defs></defs>
    <g id="icon-sha3uncles" stroke="none" stroke-width="1" fill="none" fill-rule="evenodd">
        <path d="M16,1 L17,1 L17,-0.001 L16,-0.001 L16,1 Z M24,3 L25,3 L25,2 L24,2 L24,3 Z M8,3 L9,3 L9,2 L8,2 L8,3 Z M16,4 L17,4 L17,3 L16,3 L16,4 Z M22,5 L23.001,5 L23.001,4 L22,4 L22,5 Z M9,5 L10,5 L10,4 L9,4 L9,5 Z M16,6 L17,6 L17,5 L16,5 L16,6 Z M21,8 L22,8 L22,7 L21,7 L21,8 Z M11,8 L12,8 L12,7 L11,7 L11,8 Z M30,9 L31,9 L31,8 L30,8 L30,9 Z M2,9 L3,9 L3,8 L2,8 L2,9 Z M27,10 L28,10 L28,8.999 L27,8.999 L27,10 Z M4,10 L5.001,10 L5.001,8.999 L4,8.999 L4,10 Z M25,12 L26,12 L26,11 L25,11 L25,12 Z M7,12 L8,12 L8,11 L7,11 L7,12 Z M14.233,12 L13,13.849 L13,16 L14.233,16 L15,17.152 L15,18 L10,18 L10,17.152 L10.768,16 L12,16 L12,15 L10.232,15 L9,16.848 L9,19 L16,19 L16,16.848 L15.435,16 L17.565,16 L17,16.848 L17,19 L24,19 L24,16.848 L22.767,15 L21,15 L21,16 L22.233,16 L23,17.152 L23,18 L18,18 L18,17.152 L18.768,16 L20,16 L20,13.849 L18.768,12 L14.233,12 Z M14,14.151 L14.767,13 L18.232,13 L19,14.151 L19,15 L14,15 L14,14.151 Z M31,17 L32.001,17 L32.001,16 L31,16 L31,17 Z M29,17 L30,17 L30,16 L29,16 L29,17 Z M26,17 L27,17 L27,16 L26,16 L26,17 Z M5,17 L6,17 L6,16 L5,16 L5,17 Z M3,17 L4,17 L4,16 L3,16 L3,17 Z M0,17 L1,17 L1,16 L0,16 L0,17 Z M25,22 L26,22 L26,21 L25,21 L25,22 Z M7,22 L8,22 L8,21 L7,21 L7,22 Z M27,23 L28,23 L28,22 L27,22 L27,23 Z M4,23 L5.001,23 L5.001,22 L4,22 L4,23 Z M30,25 L31,25 L31,24 L30,24 L30,25 Z M2,25 L3,25 L3,24 L2,24 L2,25 Z M21,26 L22,26 L22,25 L21,25 L21,26 Z M11,26 L12,26 L12,25 L11,25 L11,26 Z M16,27 L17,27 L17,26 L16,26 L16,27 Z M22,28 L23.001,28 L23.001,26.999 L22,26.999 L22,28 Z M9,28 L10,28 L10,26.999 L9,26.999 L9,28 Z M16,30 L17,30 L17,29 L16,29 L16,30 Z M24,31 L25,31 L25,30 L24,30 L24,31 Z M8,31 L9,31 L9,30 L8,30 L8,31 Z M16,32 L17,32 L17,31 L16,31 L16,32 Z" fill="#FFFFFF"></path>
    </g>
</svg>