<?xml version="1.0" encoding="UTF-8"?>
<svg width="25px" height="32px" viewBox="0 0 25 32" version="1.1" xmlns="http://www.w3.org/2000/svg" xmlns:xlink="http://www.w3.org/1999/xlink">
    <!-- Generator: Sketch 48.2 (47327) - http://www.bohemiancoding.com/sketch -->
    <title>icon-gasprice</title>
    <desc>Created with Sketch.</desc>
    <defs></defs>
    <g id="icon-gasprice" stroke="none" stroke-width="1" fill="none" fill-rule="evenodd">
        <path d="M18,14 L18,29 L20,29 L20,32 L0,32 L0,29 L2,29 L2,10 L0,10 L0,0 L20,0 L20,10 L18,10 L18,13 L19.6153846,13 C20.804461,13 21.7692308,13.8958576 21.7692308,15 L21.7692308,25 C21.7692308,25.5518576 22.2518456,26 22.8461538,26 C23.4404621,26 23.9230769,25.5518576 23.9230769,25 L23.9230769,11 L25,11 L25,25 C25,26.1041424 24.0352302,27 22.8461538,27 C21.6570774,27 20.6923077,26.1041424 20.6923077,25 L20.6923077,15 C20.6923077,14.4481424 20.2096928,14 19.6153846,14 L18,14 Z M24,9 L23,9 C23,8.26004172 23.4022935,7.61366329 24,7.26774506 L24,6.5 C24,5.61851709 23.5876553,5 23,5 L23,4 C24.2456781,4 25,5.13148291 25,6.5 L25,10 L24,10 L24,9 Z M17,10 L3,10 L3,29 L17,29 L17,10 Z M1,30 L1,31 L19,31 L19,30 L1,30 Z M1,9 L19,9 L19,1 L1,1 L1,9 Z M4,28 L4,11 L16,11 L16,28 L4,28 Z M5,27 L15,27 L15,12 L5,12 L5,27 Z M2,8 L2,2 L18,2 L18,8 L2,8 Z M3,7 L17,7 L17,3 L3,3 L3,7 Z M12,4 L13,4 L13,6 L12,6 L12,4 Z M14,4 L15,4 L15,6 L14,6 L14,4 Z M10,4 L11,4 L11,6 L10,6 L10,4 Z M8,4 L9,4 L9,6 L8,6 L8,4 Z M6,4 L7,4 L7,6 L6,6 L6,4 Z M12.5,22.5 C12.5,23.9580333 11.6316944,25 10,25 C8.36830559,25 7.5,23.9580333 7.5,22.5 C7.5,21.8674024 7.75585512,21.1478099 8.25772987,20.1545161 C8.34592983,19.9799537 8.4402346,19.7995601 8.55882353,19.5772059 C9.35243134,18.0891912 9.5,17.7756078 9.5,17.5 C9.5,16.8333333 10.5,16.8333333 10.5,17.5 C10.5,17.7756078 10.6475687,18.0891912 11.4411765,19.5772059 C11.5597654,19.7995601 11.6540702,19.9799537 11.7422701,20.1545161 C12.2441449,21.1478099 12.5,21.8674024 12.5,22.5 Z M9.44117647,20.0477941 C9.3257654,20.2641899 9.2346416,20.4384987 9.15027013,20.6054839 C8.71614488,21.4646901 8.5,22.0725976 8.5,22.5 C8.5,23.4419667 8.96502774,24 10,24 C11.0349723,24 11.5,23.4419667 11.5,22.5 C11.5,22.0725976 11.2838551,21.4646901 10.8497299,20.6054839 C10.7653584,20.4384987 10.6742346,20.2641899 10.5588235,20.0477941 C10.3252721,19.6098852 10.1426457,19.2659336 10,18.988346 C9.85735432,19.2659336 9.67472789,19.6098852 9.44117647,20.0477941 Z M9.5,16 L9.5,15 L10.5,15 L10.5,16 L9.5,16 Z M7.5,16 L7.5,15 L8.5,15 L8.5,16 L7.5,16 Z M11.5,16 L11.5,15 L12.5,15 L12.5,16 L11.5,16 Z" fill="#FFFFFF" fill-rule="nonzero"></path>
    </g>
</svg>