<?xml version="1.0" encoding="UTF-8"?>
<svg width="22px" height="32px" viewBox="0 0 22 32" version="1.1" xmlns="http://www.w3.org/2000/svg" xmlns:xlink="http://www.w3.org/1999/xlink">
    <!-- Generator: Sketch 48.2 (47327) - http://www.bohemiancoding.com/sketch -->
    <title>icon-gasprovided</title>
    <desc>Created with Sketch.</desc>
    <defs></defs>
    <g id="icon-gasprovided" stroke="none" stroke-width="1" fill="none" fill-rule="evenodd">
        <path d="M13,2 L13,0 L19,0 L19,2 L22,2 L22,3 L21,3 L21,6 L22,6 L22,7 L21,7 L21,8 L22,8 L22,9 L21,9 L21,25 L22,25 L22,26 L21,26 L21,27 L22,27 L22,28 L21,28 L21,31 L22,31 L22,32 L0,32 L0,31 L1,31 L1,28 L0,28 L0,27 L1,27 L1,26 L0,26 L0,25 L1,25 L1,9 L0,9 L0,8 L1,8 L1,7 L0,7 L0,6 L1,6 L1,3 L0,3 L0,2 L13,2 Z M13,3 L2,3 L2,6 L3,6 L3,7 L2,7 L2,8 L3,8 L3,9 L2,9 L2,25 L18,25 L18,26 L2,26 L2,27 L18,27 L18,28 L2,28 L2,31 L20,31 L20,28 L19,28 L19,27 L20,27 L20,26 L19,26 L19,25 L20,25 L20,9 L4,9 L4,8 L20,8 L20,7 L4,7 L4,6 L20,6 L20,3 L19,3 L13,3 Z M14,2 L18,2 L18,1 L14,1 L14,2 Z M14,19 C14,20.7761424 12.7761424,22 11,22 C9.22385763,22 8,20.7761424 8,19 C8,18.1943417 8.31128651,17.299393 8.9327864,16.0563932 C9.04096605,15.8400339 9.15495971,15.619531 9.30754089,15.3296268 C10.2767486,13.4881321 10.5,12.9895373 10.5,12.5 C10.5,11.8333333 11.5,11.8333333 11.5,12.5 C11.5,12.9895373 11.7232514,13.4881321 12.6924591,15.3296268 C12.8450403,15.619531 12.9590339,15.8400339 13.0672136,16.0563932 C13.6887135,17.299393 14,18.1943417 14,19 Z M10.1924591,15.7953732 C10.0428344,16.0796602 9.93172625,16.2945815 9.8272136,16.5036068 C9.27157064,17.6148927 9,18.3956583 9,19 C9,20.2238576 9.77614237,21 11,21 C12.2238576,21 13,20.2238576 13,19 C13,18.3956583 12.7284294,17.6148927 12.1727864,16.5036068 C12.0682737,16.2945815 11.9571656,16.0796602 11.8075409,15.7953732 C11.4538757,15.1234093 11.1921967,14.6187459 11,14.2184238 C10.8078033,14.6187459 10.5461243,15.1234093 10.1924591,15.7953732 Z" fill="#FFFFFF" fill-rule="nonzero"></path>
    </g>
</svg>