<?xml version="1.0" encoding="UTF-8"?>
<svg width="32px" height="28px" viewBox="0 0 32 28" version="1.1" xmlns="http://www.w3.org/2000/svg" xmlns:xlink="http://www.w3.org/1999/xlink">
    <!-- Generator: Sketch 48.2 (47327) - http://www.bohemiancoding.com/sketch -->
    <title>icon-hash</title>
    <desc>Created with Sketch.</desc>
    <defs></defs>
    <g id="icon-hash-artboard" stroke="none" stroke-width="1" fill="none" fill-rule="evenodd">
        <path d="M4,15 L4,14 L3,14 L3,17 L4,17 L4,16 L3,16 L3,15 L4,15 Z M4,13 L5,13 L6,15 L5,15 L6,17 L5,18 L4,18 L4,20 L4,22 C4,23.6572252 5.34250984,25 7,25 L7.80248676,25 C7.29209312,24.1175225 7,23.0929249 7,22 C7,19.9128287 8.06526301,18.0748473 9.68184477,17 L7,17 L7,16 L13,16 L19,16 L19,17 L13,17 C10.2381424,17 8,19.2381424 8,22 C8,23.1256992 8.3718175,24.1643947 8.99936587,25 L25,25 C26.6568576,25 28,23.6568576 28,22 L28,17.9996784 C27.1643132,17.3719588 26.1255615,17 25,17 L20,17 L20,16 L25,16 C26.0928271,16 27.1174569,16.2921947 28,16.8027311 L28,12 L19,12 L13,12 L13,11 L19,11 C21.7612171,11 24,8.76149822 24,6 C24,4.87437807 23.6280303,3.83565105 23.0003292,3 L7,3 C5.34250984,3 4,4.34277485 4,6 L3,6 C3,3.79053427 4.7901809,2 7,2 L22.000428,2 C21.1646679,1.37208579 20.1257537,1 19,1 L7,1 C4.23814237,1 2,3.23814237 2,6 C2,8.76185763 4.23814237,11 7,11 L12,11 L12,12 L7,12 C3.68585763,12 1,9.31414237 1,6 C1,2.68585763 3.68585763,0 7,0 L19,0 C20.7768935,0 22.3734907,0.772488997 23.4721685,2 L25,2 C27.2091424,2 29,3.79085763 29,6 L29,11 L30,11 L30,12 L29,12 L29,17.5278356 C30.2274706,18.6264585 31,20.2229907 31,22 C31,25.3138111 28.3134737,28 25,28 L13,28 C11.2226839,28 9.62606177,27.2275507 8.52748152,26 L7,26 C4.7901809,26 3,24.2094657 3,22 L3,20 L3,18 L2,18 L2,13 L3,13 L3,12 L4,12 L4,13 Z M29,18.9995618 L29,22 C29,24.2091424 27.2091424,26 25,26 L9.99915581,26 C10.8349057,26.627932 11.8739217,27 13,27 L25,27 C27.7612171,27 30,24.7614982 30,22 C30,20.8741813 29.6279003,19.8352879 29,18.9995618 Z M24.1972819,3 C24.7078017,3.88251004 25,4.90712356 25,6 C25,8.08701817 23.9344151,9.92509602 22.3177316,11 L28,11 L28,6 C28,4.34314237 26.6568576,3 25,3 L24.1972819,3 Z M27,22 C27,23.1041424 26.1041424,24 25,24 C23.8958576,24 23,23.1041424 23,22 C23,20.8958576 23.8958576,20 25,20 C26.1041424,20 27,20.8958576 27,22 Z M26,22 C26,21.4481424 25.5518576,21 25,21 C24.4481424,21 24,21.4481424 24,22 C24,22.5518576 24.4481424,23 25,23 C25.5518576,23 26,22.5518576 26,22 Z M9,6 C9,7.10414237 8.10414237,8 7,8 C5.89585763,8 5,7.10414237 5,6 C5,4.89585763 5.89585763,4 7,4 C8.10414237,4 9,4.89585763 9,6 Z M8,6 C8,5.44814237 7.55185763,5 7,5 C6.44814237,5 6,5.44814237 6,6 C6,6.55185763 6.44814237,7 7,7 C7.55185763,7 8,6.55185763 8,6 Z M25,14 L25,15 L24,15 L24,14 L25,14 Z M23,14 L23,15 L22,15 L22,14 L23,14 Z M20,14 L20,15 L19,15 L19,14 L20,14 Z M18,14 L18,15 L17,15 L17,14 L18,14 Z M15,14 L15,15 L14,15 L14,14 L15,14 Z M13,14 L13,15 L12,15 L12,14 L13,14 Z M10,14 L10,15 L9,15 L9,14 L10,14 Z M8,14 L8,15 L7,15 L7,14 L8,14 Z M22,23 L22,24 L21,24 L21,23 L22,23 Z M20,23 L20,24 L19,24 L19,23 L20,23 Z M18,23 L18,24 L17,24 L17,23 L18,23 Z M15,4 L15,5 L14,5 L14,4 L15,4 Z M13,4 L13,5 L12,5 L12,4 L13,4 Z M11,4 L11,5 L10,5 L10,4 L11,4 Z M1,17 L1,18 L0,18 L0,17 L1,17 Z M32,11 L32,12 L31,12 L31,11 L32,11 Z" id="icon-hash" fill="#FFFFFF" fill-rule="nonzero"></path>
    </g>
</svg>