<?xml version="1.0" encoding="UTF-8"?>
<svg width="32px" height="32px" viewBox="0 0 32 32" version="1.1" xmlns="http://www.w3.org/2000/svg" xmlns:xlink="http://www.w3.org/1999/xlink">
    <!-- Generator: Sketch 48.2 (47327) - http://www.bohemiancoding.com/sketch -->
    <title>icon-inputdata</title>
    <desc>Created with Sketch.</desc>
    <defs></defs>
    <g id="icon-inputdata" stroke="none" stroke-width="1" fill="none" fill-rule="evenodd">
        <path d="M29,31 L31,29 L20,29 L19,30 L13,30 L12,29 L1,29 L3,31 L29,31 Z M27,9 L27,11 C27.5526424,11 28,11.4473576 28,12 L28,13 L29,13 L29,12 L30,12 L30,15 L29,15 L29,14 L28,14 L28,15 C28,15.5526424 27.5526424,16 27,16 L4,16 C3.44735763,16 3,15.5526424 3,15 L3,14 L2,14 L2,16 L1,16 L1,13 L3,13 L3,12 C3,11.4473576 3.44735763,11 4,11 L5,11 L5,9 L4,9 L4,8 L7,8 L7,0 L22,0 L25,3 L25,8 L28,8 L28,9 L27,9 Z M26,9 L25,9 L25,10 L24,10 L24,4 L21,4 L21,1 L8,1 L8,10 L7,10 L7,9 L6,9 L6,11 L26,11 L26,9 Z M23,3 L22,2 L22,3 L23,3 Z M19,28 L32,28 L32,30 L30,32 L2,32 L0,30 L0,28 L13,28 L14,29 L18,29 L19,28 Z M2,17 L3,17 L3,27 L2,27 L2,17 Z M30,27 L29,27 L29,17 L30,17 L30,27 Z M10,7 L10,6 L22,6 L22,7 L10,7 Z M10,9 L10,8 L22,8 L22,9 L10,9 Z M22,18 L22,19 L21,19 L21,18 L22,18 Z M24,18 L24,19 L23,19 L23,18 L24,18 Z M20,18 L20,19 L19,19 L19,18 L20,18 Z M12,18 L12,19 L11,19 L11,18 L12,18 Z M10,18 L10,19 L9,19 L9,18 L10,18 Z M8,18 L8,19 L7,19 L7,18 L8,18 Z M18,18 L18,19 L17,19 L17,18 L18,18 Z M16,18 L16,19 L15,19 L15,18 L16,18 Z M14,18 L14,19 L13,19 L13,18 L14,18 Z M21,20 L21,21 L20,21 L20,20 L21,20 Z M23,20 L23,21 L22,21 L22,20 L23,20 Z M25,20 L25,21 L24,21 L24,20 L25,20 Z M19,20 L19,21 L18,21 L18,20 L19,20 Z M17,20 L17,21 L16,21 L16,20 L17,20 Z M15,20 L15,21 L14,21 L14,20 L15,20 Z M13,20 L13,21 L12,21 L12,20 L13,20 Z M11,20 L11,21 L10,21 L10,20 L11,20 Z M9,20 L9,21 L8,21 L8,20 L9,20 Z M7,20 L7,21 L6,21 L6,20 L7,20 Z M9,22 L9,23 L8,23 L8,22 L9,22 Z M7,22 L7,23 L6,23 L6,22 L7,22 Z M6,18 L6,19 L5,19 L5,18 L6,18 Z M5,20 L5,21 L4,21 L4,20 L5,20 Z M5,22 L5,23 L4,23 L4,22 L5,22 Z M25,22 L25,23 L24,23 L24,22 L25,22 Z M26,18 L26,19 L25,19 L25,18 L26,18 Z M27,20 L27,21 L26,21 L26,20 L27,20 Z M27,22 L27,23 L26,23 L26,22 L27,22 Z M23,22 L23,23 L22,23 L22,22 L23,22 Z M10,23 L10,22 L21,22 L21,23 L10,23 Z M10,4 L10,3 L19,3 L19,4 L10,4 Z M27,12 L4,12 L4,15 L27,15 L27,12 Z M14,13 L14,14 L13,14 L13,13 L14,13 Z M16,13 L16,14 L15,14 L15,13 L16,13 Z M18,13 L18,14 L17,14 L17,13 L18,13 Z M26,25 L26,24 L27,24 L27,26 L4,26 L4,24 L5,24 L5,25 L26,25 Z" fill="#FFFFFF" fill-rule="nonzero"></path>
    </g>
</svg>