<?xml version="1.0" encoding="UTF-8"?>
<svg width="32px" height="33px" viewBox="0 0 32 33" version="1.1" xmlns="http://www.w3.org/2000/svg" xmlns:xlink="http://www.w3.org/1999/xlink">
    <!-- Generator: Sketch 48.2 (47327) - http://www.bohemiancoding.com/sketch -->
    <title>icon-difficulty</title>
    <desc>Created with Sketch.</desc>
    <defs></defs>
    <g id="icon-difficulty" stroke="none" stroke-width="1" fill="none" fill-rule="evenodd">
        <path d="M17,7.4873 C18.01,7.6413 18.932,8.0663 19.684,8.6933 L18.96,9.4173 C18.397,8.9663 17.735,8.6393 17,8.5013 L17,7.4873 Z M21.584,12.0003 L20.572,12.0003 C20.426,11.2973 20.101,10.6663 19.667,10.1243 L20.391,9.4003 C21,10.1313 21.419,11.0223 21.584,12.0003 Z M20.391,16.4333 L19.667,15.7103 C20.267,14.9613 20.64,14.0273 20.658,13.0003 L21.663,13.0003 C21.643,14.3033 21.17,15.5003 20.391,16.4333 Z M17,18.3463 L17,17.3333 C17.735,17.1943 18.397,16.8673 18.96,16.4173 L19.684,17.1403 C18.932,17.7673 18.01,18.1923 17,18.3463 Z M12.667,12.9173 C12.667,10.9873 14.237,9.4173 16.167,9.4173 C18.097,9.4173 19.667,10.9873 19.667,12.9173 C19.667,14.8463 18.097,16.4173 16.167,16.4173 C14.237,16.4173 12.667,14.8463 12.667,12.9173 Z M16,18.4083 C14.729,18.3703 13.564,17.9033 12.65,17.1403 L13.374,16.4173 C14.102,17.0003 15.006,17.3633 16,17.4003 L16,18.4083 Z M10.671,13.0003 L11.676,13.0003 C11.694,14.0273 12.067,14.9613 12.667,15.7103 L11.943,16.4333 C11.164,15.5003 10.691,14.3033 10.671,13.0003 Z M11.943,9.4003 L12.667,10.1243 C12.233,10.6663 11.908,11.2973 11.762,12.0003 L10.75,12.0003 C10.915,11.0223 11.334,10.1313 11.943,9.4003 Z M16,7.4253 L16,8.4333 C15.006,8.4703 14.102,8.8343 13.374,9.4173 L12.65,8.6933 C13.564,7.9303 14.729,7.4643 16,7.4253 Z M9.667,12.9173 C9.667,16.5013 12.583,19.4173 16.167,19.4173 C19.751,19.4173 22.667,16.5013 22.667,12.9173 C22.667,9.3333 19.751,6.4173 16.167,6.4173 C12.583,6.4173 9.667,9.3333 9.667,12.9173 Z M26,3.0003 L3,3.0003 L3,22.0003 L26,22.0003 L26,21.0003 L4,21.0003 L4,4.0003 L26,4.0003 L26,3.0003 Z M16.167,31.4173 C15.615,31.4173 15.167,30.9683 15.167,30.4173 C15.167,29.8653 15.615,29.4173 16.167,29.4173 C16.719,29.4173 17.167,29.8653 17.167,30.4173 C17.167,30.9683 16.719,31.4173 16.167,31.4173 Z M4,26.0003 L8,26.0003 L8,25.0003 L4,25.0003 L4,26.0003 Z M24,26.0003 L28,26.0003 L28,25.0003 L24,25.0003 L24,26.0003 Z M17,28.6043 L17,25.0003 L23,25.0003 L23,27.0003 L29,27.0003 L29,24.0003 L3,24.0003 L3,27.0003 L9,27.0003 L9,25.0003 L16,25.0003 L16,28.4333 C15.117,28.5083 14.394,29.1503 14.212,30.0003 L0,30.0003 L0,31.0003 L14.264,31.0003 C14.516,31.8173 15.269,32.4173 16.167,32.4173 C17.065,32.4173 17.818,31.8173 18.07,31.0003 L32,31.0003 L32,30.0003 L18.122,30.0003 C17.989,29.3783 17.564,28.8653 17,28.6043 Z M28,21.0003 L29,21.0003 L29,17.0003 L28,17.0003 L28,21.0003 Z M28,8.0003 L29,8.0003 L29,4.0003 L28,4.0003 L28,8.0003 Z M27,16.0003 L27,22.0003 L30,22.0003 L30,16.0003 L29,16.0003 L29,9.0003 L30,9.0003 L30,3.0003 L27,3.0003 L27,9.0003 L28,9.0003 L28,16.0003 L27,16.0003 Z M30.5,0.0003 L1.5,0.0003 C0.673,0.0003 0,0.6733 0,1.5003 L0,23.5003 C0,24.3273 0.673,25.0003 1.5,25.0003 L2,25.0003 L2,24.0003 L1.5,24.0003 C1.225,24.0003 1,23.7753 1,23.5003 L1,1.5003 C1,1.2243 1.225,1.0003 1.5,1.0003 L30.5,1.0003 C30.775,1.0003 31,1.2243 31,1.5003 L31,23.5003 C31,23.7753 30.775,24.0003 30.5,24.0003 L30,24.0003 L30,25.0003 L30.5,25.0003 C31.327,25.0003 32,24.3273 32,23.5003 L32,1.5003 C32,0.6733 31.327,0.0003 30.5,0.0003 Z" fill="#FFFFFF"></path>
    </g>
</svg>