<?xml version="1.0" encoding="UTF-8"?>
<svg width="32px" height="32px" viewBox="0 0 32 32" version="1.1" xmlns="http://www.w3.org/2000/svg" xmlns:xlink="http://www.w3.org/1999/xlink">
    <!-- Generator: Sketch 48.2 (47327) - http://www.bohemiancoding.com/sketch -->
    <title>icon-nonce</title>
    <desc>Created with Sketch.</desc>
    <defs></defs>
    <g id="icon-nonce" stroke="none" stroke-width="1" fill="none" fill-rule="evenodd">
        <path d="M27,6 L28,6 L28,5 L27,5 L27,6 Z M20,9 L21,9 L21,8 L20,8 L20,9 Z M18,11 L19,11 L19,10 L18,10 L18,11 Z M20,11 L21,11 L21,10 L20,10 L20,11 Z M22,11 L23,11 L23,10 L22,10 L22,11 Z M2,16 L3,16 L3,4 L2,4 L2,16 Z M15,23 L16,23 L16,22 L15,22 L15,23 Z M15,25 L16,25 L16,24 L15,24 L15,25 Z M2,25 L3,25 L3,24 L2,24 L2,25 Z M2,27 L3,27 L3,26 L2,26 L2,27 Z M6,25 L7,25 L7,24 L6,24 L6,25 Z M15,27 L16,27 L16,26 L15,26 L15,27 Z M28,18 L29,18 L29,17 L28,17 L28,18 Z M11,31 L12,31 L12,30 L11,30 L11,31 Z M9,31 L10,31 L10,30 L9,30 L9,31 Z M7,31 L8,31 L8,30 L7,30 L7,31 Z M5,31 L6,31 L6,30 L5,30 L5,31 Z M26,18 L27,18 L27,17 L26,17 L26,18 Z M22,25 L23,25 L23,24 L22,24 L22,25 Z M20,25 L21,25 L21,24 L20,24 L20,25 Z M26,25 L27,25 L27,24 L26,24 L26,25 Z M22,27 L23,27 L23,26 L22,26 L22,27 Z M24,23 L25,23 L25,22 L24,22 L24,23 Z M24,25 L25,25 L25,24 L24,24 L24,25 Z M24,20 L25,20 L25,19 L24,19 L24,20 Z M24,18 L25,18 L25,17 L24,17 L24,18 Z M10,15 L11,15 L11,14 L10,14 L10,15 Z M8,15 L9,15 L9,14 L8,14 L8,15 Z M6,15 L7,15 L7,14 L6,14 L6,15 Z M6,13 L7,13 L7,12 L6,12 L6,13 Z M20,3 L21,3 L21,2 L20,2 L20,3 Z M22,3 L23,3 L23,2 L22,2 L22,3 Z M7,3 L8,3 L8,2 L7,2 L7,3 Z M5,3 L6,3 L6,2 L5,2 L5,3 Z M4,20 L19,20 L19,19 L4,19 L4,20 Z M22,19 C22,19.552 21.552,20 21,20 C20.448,20 20,19.552 20,19 C20,18.448 20.448,18 21,18 C21.552,18 22,18.448 22,19 Z M23,19 C23,17.897 22.103,17 21,17 C19.897,17 19,17.897 19,19 C19,20.103 19.897,21 21,21 C22.103,21 23,20.103 23,19 Z M1,19 C1,18.448 1.448,18 2,18 C2.552,18 3,18.448 3,19 C3,19.552 2.552,20 2,20 C1.448,20 1,19.552 1,19 Z M0,19 C0,20.103 0.897,21 2,21 C3.103,21 4,20.103 4,19 C4,17.897 3.103,17 2,17 C0.897,17 0,17.897 0,19 Z M29,2 C29,1.448 29.448,1 30,1 C30.552,1 31,1.448 31,2 C31,2.552 30.552,3 30,3 C29.448,3 29,2.552 29,2 Z M30,0 C28.897,0 28,0.897 28,2 L24,2 L24,3 L28,3 C28.625,3.595 29.264,4 30,4 C31.103,4 32,3.103 32,2 C32,0.897 31.103,0 30,0 Z M14,2 C14,1.448 14.448,1 15,1 C15.552,1 16,1.448 16,2 C16,2.552 15.552,3 15,3 C14.448,3 14,2.552 14,2 Z M15,0 C13.897,0 13,0.897 13,2 C13,3.103 13.897,4 15,4 C16.103,4 17,3.103 17,2 C17,0.897 16.103,0 15,0 Z M3,2 C3,2.552 2.552,3 2,3 C1.448,3 1,2.552 1,2 C1,1.448 1.448,1 2,1 C2.552,1 3,1.448 3,2 Z M4,2 C4,0.897 3.103,0 2,0 C0.897,0 0,0.897 0,2 C0,3.103 0.897,4 2,4 C3.103,4 4,3.103 4,2 Z M29,14 C29,13.448 29.448,13 30,13 C30.552,13 31,13.448 31,14 C31,14.552 30.552,15 30,15 C29.448,15 29,14.552 29,14 Z M31,4 L30,4 L30,12 C28.897,12 28,12.897 28,14 C28,15.103 28.897,16 30,16 C31.103,16 32,15.103 32,14 C32,13.264 31.595,12.625 31,12 L31,4 Z M26,11 C25.448,11 25,10.552 25,10 C25,9.448 25.448,9 26,9 C26.552,9 27,9.448 27,10 C27,10.552 26.552,11 26,11 Z M26,12 C27.103,12 28,11.103 28,10 C28,8.897 27.103,8 26,8 C24.897,8 24,8.897 24,10 C24,11.103 24.897,12 26,12 Z M8,8 C8,8.552 7.552,9 7,9 C6.448,9 6,8.552 6,8 C6,7.448 6.448,7 7,7 C7.552,7 8,7.448 8,8 Z M15,15 C14.448,15 14,14.552 14,14 C14,13.448 14.448,13 15,13 C15.552,13 16,13.448 16,14 C16,14.552 15.552,15 15,15 Z M9,9 L15,9 L15,12 C13.897,12 13,12.897 13,14 C13,15.103 13.897,16 15,16 C16.103,16 17,15.103 17,14 C17,13.264 16.595,12.625 16,12 L16,4 L15,4 L15,8 L9,8 C9,6.897 8.103,6 7,6 C5.897,6 5,6.897 5,8 C5,9.103 5.897,10 7,10 C7.736,10 8.375,9.595 9,9 Z M9,25 C9,24.448 9.448,24 10,24 C10.552,24 11,24.448 11,25 C11,25.552 10.552,26 10,26 C9.448,26 9,25.552 9,25 Z M8,25 C8,26.103 8.897,27 10,27 C11.103,27 12,26.103 12,25 C12,23.897 11.103,23 10,23 C8.897,23 8,23.897 8,25 Z M29,30 C29,29.448 29.448,29 30,29 C30.552,29 31,29.448 31,30 C31,30.552 30.552,31 30,31 C29.448,31 29,30.552 29,30 Z M31,17 L30,17 L30,28 C28.897,28 28,28.897 28,30 L17,30 L17,31 L28,31 C28.625,31.595 29.264,32 30,32 C31.103,32 32,31.103 32,30 C32,29.264 31.595,28.625 31,28 L31,17 Z M14,30 C14,29.448 14.448,29 15,29 C15.552,29 16,29.448 16,30 C16,30.552 15.552,31 15,31 C14.448,31 14,30.552 14,30 Z M13,30 C13,31.103 13.897,32 15,32 C16.103,32 17,31.103 17,30 C17,28.897 16.103,28 15,28 C13.897,28 13,28.897 13,30 Z M1,30 C1,29.448 1.448,29 2,29 C2.552,29 3,29.448 3,30 C3,30.552 2.552,31 2,31 C1.448,31 1,30.552 1,30 Z M0,30 C0,31.103 0.897,32 2,32 C3.103,32 4,31.103 4,30 C4,28.897 3.103,28 2,28 C0.897,28 0,28.897 0,30 Z" fill="#FFFFFF"></path>
    </g>
</svg>