<?xml version="1.0" encoding="UTF-8"?>
<svg width="32px" height="29px" viewBox="0 0 32 29" version="1.1" xmlns="http://www.w3.org/2000/svg" xmlns:xlink="http://www.w3.org/1999/xlink">
    <!-- Generator: Sketch 48.2 (47327) - http://www.bohemiancoding.com/sketch -->
    <title>icon-from</title>
    <desc>Created with Sketch.</desc>
    <defs></defs>
    <g id="icon-from" stroke="none" stroke-width="1" fill="none" fill-rule="evenodd">
        <path d="M15,23 L20,23 L20,22 L15,22 L15,23 Z M1,18 L1,10.275 L2.149,12 L9,12 L9,11 L2.685,11 L1.352,9 L11,9 L11,18 L1,18 Z M14.167,7.333 C14.856,7.333 15.417,7.894 15.417,8.583 C15.417,9.272 14.856,9.833 14.167,9.833 C13.478,9.833 12.917,9.272 12.917,8.583 C12.917,7.894 13.478,7.333 14.167,7.333 Z M15,4 L20,4 L20,1 L15,1 L15,4 Z M32,6.5 C32,4.019 29.981,2 27.5,2 L23,2 L23,3 L27.5,3 C29.43,3 31,4.57 31,6.5 L31,21 L12,21 L12,19 L29,19 L29,18 L12,18 L12,9.155 C12.255,10.117 13.126,10.833 14.167,10.833 C15.407,10.833 16.417,9.823 16.417,8.583 C16.417,7.638 15.828,6.829 15,6.497 L15,5 L21,5 L21,0 L14,0 L14,6.35 C13.034,6.423 12.241,7.102 12,8.011 L12,6.154 C12,4.952 11.573,3.847 10.872,3 L13,3 L13,2 L9.705,2 C9.312,1.768 8.886,1.587 8.426,1.492 C7.068,1.213 5.696,1.561 4.649,2.439 C3.602,3.318 3,4.615 3,6 L4,6 C4,4.924 4.468,3.914 5.283,3.23 C5.778,2.814 6.375,2.574 7,2.481 L7,3 L9.397,3 C10.368,3.664 11,4.839 11,6.154 L11,8 L0,8 L0,19 L11,19 L11,21 L4,21 L4,20 L3,20 L3,22 L14,22 L14,29 L15,29 L15,24 L20,24 L20,29 L21,29 L21,22 L32,22 L32,6.5 Z" fill="#FFFFFF"></path>
    </g>
</svg>