<?xml version="1.0" encoding="UTF-8"?>
<svg width="31px" height="32px" viewBox="0 0 31 32" version="1.1" xmlns="http://www.w3.org/2000/svg" xmlns:xlink="http://www.w3.org/1999/xlink">
    <!-- Generator: Sketch 48.2 (47327) - http://www.bohemiancoding.com/sketch -->
    <title>icon-minedby</title>
    <desc>Created with Sketch.</desc>
    <defs></defs>
    <g id="icon-minedby" stroke="none" stroke-width="1" fill="none" fill-rule="evenodd">
        <path d="M19,0 L19,8 L18.917,8 L2.261,17.06 L2,17.203 L2,21.845 L12.463,16.059 L7,29.815 L6.981,31.001 L6,31.001 L6,32 L25,32 L25,31.001 L24,31.001 L24,30.001 L17.476,13.348 L21.162,11.326 L27.321,18.111 L29,17.317 L29,7.501 L27.869,3.683 L22.298,0 L19,0 Z M20,1.001 L21.997,1.001 L22,1.003 L22,4.284 L23.858,5.399 L20,7.482 L20,1.001 Z M23.001,3.717 L23.001,1.663 L26.495,3.974 L24.881,4.846 L23.001,3.717 Z M3,17.798 L27.149,4.759 L27.703,6.593 L3,20.156 L3,17.798 Z M27.999,7.572 L28,7.574 L28,14.349 L26,11.349 L26,9 L25.396,9 L27.999,7.572 Z M22.063,10.831 L25,9.218 L25,11.651 L28,16.151 L28,16.684 L27.563,16.89 L22.063,10.831 Z M8,30.097 L13.917,15.302 L16.593,13.832 L23.001,30.095 L23.001,31.001 L22,31.001 L22,29.862 L15.5,19.029 L9.448,29.115 L8.728,29.58 L9,30.001 L9,31.001 L8,31.001 L8,30.097 Z M13.394,24.483 L15.5,20.972 L20.28,28.939 L15.92,26.118 L17.771,24.92 L17.229,24.08 L15,25.522 L13.394,24.483 Z M12.879,25.341 L14.081,26.118 L11.355,27.881 L12.879,25.341 Z M10,30.139 L10.186,29.829 L15,26.713 L20.729,30.42 L20.958,30.067 L21,30.139 L21,31.001 L10,31.001 L10,30.139 Z M15,18 L16,18 L16,17 L15,17 L15,18 Z M28,30.001 L29,30.001 L29,19.001 L28,19.001 L28,30.001 Z M2,27 L3,27 L3,23 L2,23 L2,27 Z M0,32 L5,32 L5,28 L0,28 L0,32 Z M1,31.001 L4,31.001 L4,29.001 L1,29.001 L1,31.001 Z M30,30.001 L30,31.001 L27,31.001 L27,30.001 L26,30.001 L26,32 L31,32 L31,30.001 L30,30.001 Z" fill="#FFFFFF"></path>
    </g>
</svg>