<svg xmlns="http://www.w3.org/2000/svg" xmlns:xlink="http://www.w3.org/1999/xlink" width="25" height="39" version="1.1" viewBox="0 0 25 39"><title>address-icon-received</title><desc>Created with Sketch.</desc><defs><path id="path-1" d="M24,22 L13,32 C13.1512377,31.9318622 11.9572497,32.0419017 12,32 L1,22 C1.02075174,21.7532091 0.971601638,20.9637954 1,21 C1.87548408,20.0464009 2.68226508,20.0248714 3,20 L11,28 L11,2 C11.3063105,1.53464841 11.8421665,1 13,1 C13.1668218,1 13.7038767,1.53464841 14,2 L14,28 L22,20 C22.3267233,20.0248714 23.1371007,20.0272636 24,21 C24.0265977,21.0128347 23.9822427,21.7472287 24,22 Z"/><filter id="filter-2" width="104.4%" height="106.5%" x="-2.2%" y="-4.8%" filterUnits="objectBoundingBox"><feOffset dx="0" dy="-1" in="SourceAlpha" result="shadowOffsetOuter1"/><feColorMatrix in="shadowOffsetOuter1" type="matrix" values="0 0 0 0 0 0 0 0 0 0 0 0 0 0 0 0 0 0 0.1 0"/></filter><path id="path-3" d="M5,38 C4.44998836,38 4,37.5522847 4,37 C4,36.4477153 4.44998836,36 5,36 L20,36 C20.5500116,36 21,36.4477153 21,37 C21,37.5522847 20.5500116,38 20,38 L5,38 Z"/><filter id="filter-4" width="105.9%" height="200%" x="-2.9%" y="-25%" filterUnits="objectBoundingBox"><feOffset dx="0" dy="1" in="SourceAlpha" result="shadowOffsetOuter1"/><feComposite in="shadowOffsetOuter1" in2="SourceAlpha" operator="out" result="shadowOffsetOuter1"/><feColorMatrix in="shadowOffsetOuter1" type="matrix" values="0 0 0 0 1 0 0 0 0 1 0 0 0 0 1 0 0 0 0.2 0"/></filter></defs><g id="Symbols" fill="none" fill-rule="evenodd" stroke="none" stroke-width="1"><g id="address-icon-received"><g id="arrow"><use fill="#000" fill-opacity="1" filter="url(#filter-2)" xlink:href="#path-1"/><use fill="#FFF" fill-rule="evenodd" xlink:href="#path-1"/></g><g id="shadow" fill-rule="nonzero"><use fill="#000" fill-opacity="1" filter="url(#filter-4)" xlink:href="#path-3"/><use fill="#000" fill-opacity=".13" fill-rule="evenodd" xlink:href="#path-3"/></g></g></g></svg>