<?xml version="1.0" encoding="UTF-8"?>
<svg width="32px" height="30px" viewBox="0 0 32 30" version="1.1" xmlns="http://www.w3.org/2000/svg" xmlns:xlink="http://www.w3.org/1999/xlink">
    <!-- Generator: Sketch 48.2 (47327) - http://www.bohemiancoding.com/sketch -->
    <title>icon-parenthash</title>
    <desc>Created with Sketch.</desc>
    <defs></defs>
    <g id="icon-parenthash" stroke="none" stroke-width="1" fill="none" fill-rule="evenodd">
        <path d="M20.7837194,8 L21.2785699,8 L20.7837194,8 Z M20.7837194,9 C21.3300343,9 21.7734203,8.552 21.7734203,8 C21.7734203,7.448 21.3300343,7 20.7837194,7 C20.2374045,7 19.7940185,7.448 19.7940185,8 C19.7940185,8.552 20.2374045,9 20.7837194,9 Z M4.21315684,24.896 C3.4223858,25.563 2.96910277,26.543 2.96910277,27.583 L2.96910277,30 L3.9588037,30 L3.9588037,27.583 C3.9588037,26.84 4.2824359,26.141 4.84755513,25.664 C5.41960226,25.18 6.14505304,24.986 6.89920515,25.126 C8.04428912,25.335 8.90730832,26.455 8.90730832,27.73 L8.90730832,30 L9.89700925,30 L9.89700925,27.73 C9.89700925,25.949 8.71035784,24.44 7.07438221,24.142 C6.04707265,23.957 5.00392788,24.229 4.21315684,24.896 Z M4.94850462,20 L3.9588037,20 L3.9588037,13.947 C4.28639471,14.144 4.63180033,14.317 4.99304117,14.464 L5.36022021,13.536 C2.90576192,12.542 1.31927133,10.173 1.31927133,7.5 C1.31927133,3.921 4.20523923,1.005 7.75232734,1 L13.8558129,1 L13.8558129,0 L7.75133764,0 C3.65892432,0.005 0.329570408,3.37 0.329570408,7.5 C0.329570408,9.765 1.32323014,11.834 2.96910277,13.23 L2.96910277,20 L1.63597563,20 L0.0316704296,24.324 L0,30 L0.989700925,30 L0.989700925,24.591 L2.32282807,21 L4.94850462,21 L4.94850462,20 Z M5.93820555,20 L5.93820555,21 L9.14978505,21 L12.866112,26.163 L12.866112,30 L13.8558129,30 L13.8558129,25.838 L9.65453252,20 L5.93820555,20 Z M28.7013268,8 L29.6910277,8 L29.6910277,7 L28.7013268,7 L28.7013268,8 Z M26.721925,8 L27.7116259,8 L27.7116259,7 L26.721925,7 L26.721925,8 Z M24.7425231,8 L25.732224,8 L25.732224,7 L24.7425231,7 L24.7425231,8 Z M19.7940185,3 L20.7837194,3 L20.7837194,2 L19.7940185,2 L19.7940185,3 Z M17.8146166,3 L18.8043176,3 L18.8043176,2 L17.8146166,2 L17.8146166,3 Z M15.8352148,3 L16.8249157,3 L16.8249157,2 L15.8352148,2 L15.8352148,3 Z M29.1961773,3 L28.7013268,3 L29.1961773,3 Z M28.7013268,2 C28.1550119,2 27.7116259,2.448 27.7116259,3 C27.7116259,3.552 28.1550119,4 28.7013268,4 C29.2476417,4 29.6910277,3.552 29.6910277,3 C29.6910277,2.448 29.2476417,2 28.7013268,2 Z M30.5867071,4.236 C30.2086413,4.722 29.6415427,5 29.0308972,5 L20.7372035,5 C19.3120341,5 18.0491758,5.952 17.73742,7.263 C17.5186961,8.184 17.7186157,9.128 18.286704,9.855 C18.8538026,10.583 19.702966,11 20.6184394,11 L23.7528222,11 L23.7528222,10 L20.6184394,10 C20.0087836,10 19.441685,9.722 19.0636192,9.237 C18.6845638,8.751 18.5519438,8.117 18.700399,7.497 C18.9062568,6.63 19.7633378,6 20.7372035,6 L29.0308972,6 C29.9463706,6 30.7965237,5.583 31.3636223,4.855 C31.9317106,4.128 32.1316302,3.183 31.9129063,2.263 C31.6011505,0.952 30.3382921,0 28.9131228,0 L14.8455139,0 L14.8455139,1 L28.9131228,1 C29.8869885,1 30.7440695,1.63 30.9499273,2.497 C31.0983825,3.117 30.9657625,3.751 30.5867071,4.236 Z M26.5566449,20 C27.3424674,20 28.0896916,19.617 28.5548511,18.976 C29.0269384,18.323 29.1555995,17.493 28.9061949,16.697 C28.5924597,15.698 27.5918721,15 26.47351,15 L22.7245229,15 C22.4681904,13.353 20.9767111,12 19.299168,12 L18.4410973,12 L15.8569882,20.351 L15.8352148,21.391 L17.8146166,21.891 L17.8146166,26.207 L18.5994495,27 L21.7734203,27 L21.7734203,30 L22.7631213,30 L22.7631213,27 L24.7425231,27 L24.7425231,26 L19.0091857,26 L18.8043176,25.793 L18.8043176,21.109 L16.8249157,20.609 L19.1675378,13 L19.299168,13 C20.7154301,13 21.7734203,14.32 21.7734203,15.5 L21.7734203,16 L26.47351,16 C27.165311,16 27.7779359,16.411 27.9630099,17 C28.1154239,17.487 28.0402066,17.992 27.7561624,18.385 C27.4770668,18.771 27.0287323,19 26.5566449,19 L26.5566449,20 Z M24.5772431,9.583 L24.5772431,10.583 C28.1243312,10.583 31.0102991,13.499 31.0102991,17.083 C31.0102991,19.757 29.4238085,22.126 26.9693502,23.119 L27.3365292,24.047 C27.8274209,23.849 28.2747657,23.587 28.7013268,23.3 L28.7013268,30 L29.6910277,30 L29.6910277,23 L29.130857,23 C30.9142981,21.605 32,19.451 32,17.083 C32,12.947 28.6706461,9.583 24.5772431,9.583 Z M15.8352148,10.5 L13.2293323,2 L12.3712616,2 C10.6293879,2 9.18343488,3.306 8.94194786,5 L5.85705007,5 C4.73769833,5 3.73612099,5.698 3.4243652,6.697 C3.17496057,7.492 3.30263199,8.322 3.77471933,8.975 C4.23987876,9.617 4.98710296,10 5.77292549,10 L5.77292549,9 C5.30083815,9 4.85250363,8.77 4.57340797,8.385 C4.28936381,7.992 4.21513624,7.487 4.36755018,6.999 C4.55262425,6.411 5.16425943,6 5.85705007,6 L9.89700925,6 L9.89700925,5.5 C9.89700925,4.121 11.006464,3 12.3712616,3 L12.5028918,3 L14.8455139,10.576 L12.866112,11.109 L12.866112,15.793 L12.6612439,16 L7.9176074,16 L7.9176074,17 L8.90730832,17 L8.90730832,19 L9.89700925,19 L9.89700925,17 L13.0709801,17 L13.8558129,16.207 L13.8558129,11.891 L15.8352148,11.391 L15.8352148,10.5 Z" fill="#FFFFFF"></path>
    </g>
</svg>