<?xml version="1.0" encoding="UTF-8"?>
<svg width="32px" height="30px" viewBox="0 0 32 30" version="1.1" xmlns="http://www.w3.org/2000/svg" xmlns:xlink="http://www.w3.org/1999/xlink">
    <!-- Generator: Sketch 48.2 (47327) - http://www.bohemiancoding.com/sketch -->
    <title>icon-gaslimit</title>
    <desc>Created with Sketch.</desc>
    <defs></defs>
    <g id="icon-gaslimit" stroke="none" stroke-width="1" fill="none" fill-rule="evenodd">
        <path d="M6.002,29.4966 L26.002,29.4966 L26.002,28.4966 L6.002,28.4966 L6.002,29.4966 Z M16.002,17.2466 C15.45,17.2466 15.002,16.7986 15.002,16.2466 C15.002,15.6946 15.45,15.2466 16.002,15.2466 C16.554,15.2466 17.002,15.6946 17.002,16.2466 C17.002,16.7986 16.554,17.2466 16.002,17.2466 Z M21.649,9.8926 L19.519,12.0226 C18.565,11.2266 17.338,10.7466 16.002,10.7466 C12.97,10.7466 10.502,13.2146 10.502,16.2466 C10.502,17.4476 10.883,18.5896 11.603,19.5486 L12.402,18.9466 C11.814,18.1636 11.502,17.2296 11.502,16.2466 C11.502,13.7656 13.521,11.7466 16.002,11.7466 C17.063,11.7466 18.026,12.1306 18.795,12.7466 L17.012,14.5296 C16.714,14.3536 16.371,14.2466 16.002,14.2466 C14.9,14.2466 14.002,15.1436 14.002,16.2466 C14.002,17.3496 14.9,18.2466 16.002,18.2466 C17.105,18.2466 18.002,17.3496 18.002,16.2466 C18.002,15.8776 17.895,15.5346 17.719,15.2366 L19.502,13.4536 C20.118,14.2236 20.502,15.1856 20.502,16.2466 C20.502,17.2286 20.192,18.1626 19.603,18.9466 L20.404,19.5466 C21.122,18.5886 21.502,17.4466 21.502,16.2466 C21.502,14.9096 21.022,13.6836 20.226,12.7296 L22.356,10.6006 L21.649,9.8926 Z M28.964,15.4966 C28.573,8.6786 22.917,3.2466 16.002,3.2466 C8.834,3.2466 3.002,9.0786 3.002,16.2466 C3.002,19.0866 3.902,21.7836 5.603,24.0486 L6.402,23.4466 C4.883,21.4246 4.064,19.0256 4.012,16.4966 L5.002,16.4966 L5.002,15.4966 L4.04,15.4966 C4.217,12.6646 5.375,10.1006 7.184,8.1356 L8.149,9.1006 L8.856,8.3926 L7.891,7.4286 C10.03,5.4596 12.873,4.2466 16.002,4.2466 L16.002,5.4966 L17.002,5.4966 L17.002,4.2976 C19.736,4.5236 22.205,5.6726 24.114,7.4286 L23.149,8.3926 L23.856,9.1006 L24.821,8.1356 C26.629,10.1006 27.787,12.6646 27.964,15.4966 L27.002,15.4966 L27.002,16.4966 L27.992,16.4966 C27.942,19.0256 27.123,21.4246 25.604,23.4456 L26.403,24.0476 C28.053,21.8506 28.941,19.2446 28.992,16.4966 L29.002,16.4966 L29.002,15.4966 L28.964,15.4966 Z M12.002,24.4966 L13.002,24.4966 L13.002,23.4966 L12.002,23.4966 L12.002,24.4966 Z M20.002,24.4966 L21.002,24.4966 L21.002,23.4966 L20.002,23.4966 L20.002,24.4966 Z M18.002,24.4966 L19.002,24.4966 L19.002,23.4966 L18.002,23.4966 L18.002,24.4966 Z M14.002,24.4966 L15.002,24.4966 L15.002,23.4966 L14.002,23.4966 L14.002,24.4966 Z M16.002,24.4966 L17.002,24.4966 L17.002,23.4966 L16.002,23.4966 L16.002,24.4966 Z M26.792,26.4966 L5.212,26.4966 C1.676,22.8366 0.245,17.6486 1.385,12.5746 C2.725,6.6046 7.717,2.0146 13.808,1.1516 C18.164,0.5366 22.551,1.8146 25.833,4.6666 C29.118,7.5196 31.002,11.6486 31.002,15.9966 C31.002,19.9056 29.47,23.7206 26.792,26.4966 Z M26.489,3.9116 C22.989,0.8706 18.315,-0.4954 13.667,0.1616 C7.167,1.0826 1.839,5.9826 0.408,12.3556 C-0.821,17.8336 0.763,23.4376 4.648,27.3496 L4.794,27.4966 L27.21,27.4966 L27.357,27.3496 C30.309,24.3756 32.002,20.2366 32.002,15.9966 C32.002,11.3596 29.992,6.9546 26.489,3.9116 Z" fill="#FFFFFF"></path>
    </g>
</svg>