<svg viewBox="0 0 384 279" xmlns="http://www.w3.org/2000/svg">
  <g stroke="#222829" stroke-width="2" fill="none" fill-rule="evenodd" opacity=".502" stroke-linejoin="round">
    <path d="M211.613 112.167L192 137.077l-38-48.574 11.032-18.682h34.323M211.613 69.821h7.355L230 88.503l-11.032 13.7M198.129 88.503H230M154 88.503h31.871M218.968 69.821l-13.484 18.682M192 69.821l13.484 18.682M192 69.821l-13.484 18.682M165.032 69.821l13.484 18.682M178.516 88.503L192 137.077M205.484 88.503L192 137.077M205.168 66v7.643M202.158 69.821h7.525M192.376 84.342v7.643M188.614 88.164h7.525M166.04 114.913v7.643M162.277 118.734h7.525M214.95 103.45v7.642M211.94 107.27h7.525"/>
    <g>
      <path d="M288.613 183.167L269 208.077l-38-48.574 11.032-18.682h34.323M288.613 140.821h7.355L307 159.503l-11.032 13.7M275.129 159.503H307M231 159.503h31.871M295.968 140.821l-13.484 18.682M269 140.821l13.484 18.682M269 140.821l-13.484 18.682M242.032 140.821l13.484 18.682M255.516 159.503L269 208.077M282.484 159.503L269 208.077M282.168 137v7.643M279.158 140.821h7.525M269.376 155.342v7.643M265.614 159.164h7.525M243.04 185.913v7.643M239.277 189.734h7.525M291.95 174.45v7.642M288.94 178.27h7.525"/>
    </g>
    <g>
      <path d="M135.613 183.167L116 208.077l-38-48.574 11.032-18.682h34.323M135.613 140.821h7.355L154 159.503l-11.032 13.7M122.129 159.503H154M78 159.503h31.871M142.968 140.821l-13.484 18.682M116 140.821l13.484 18.682M116 140.821l-13.484 18.682M89.032 140.821l13.484 18.682M102.516 159.503L116 208.077M129.484 159.503L116 208.077M129.168 137v7.643M126.158 140.821h7.525M116.376 155.342v7.643M112.614 159.164h7.525M90.04 185.913v7.643M86.277 189.734h7.525M138.95 174.45v7.642M135.94 178.27h7.525"/>
    </g>
    <g>
      <path d="M288.613 46.167L269 71.077l-38-48.574 11.032-18.682h34.323M288.613 3.821h7.355L307 22.503l-11.032 13.7M275.129 22.503H307M231 22.503h31.871M295.968 3.821l-13.484 18.682M269 3.821l13.484 18.682M269 3.821l-13.484 18.682M242.032 3.821l13.484 18.682M255.516 22.503L269 71.077M282.484 22.503L269 71.077M282.168 0v7.643M279.158 3.821h7.525M269.376 18.342v7.643M265.614 22.164h7.525M243.04 48.913v7.643M239.277 52.734h7.525M291.95 37.45v7.642M288.94 41.27h7.525"/>
    </g>
    <g>
      <path d="M134.613 46.167L115 71.077 77 22.503 88.032 3.821h34.323M134.613 3.821h7.355L153 22.503l-11.032 13.7M121.129 22.503H153M77 22.503h31.871M141.968 3.821l-13.484 18.682M115 3.821l13.484 18.682M115 3.821l-13.484 18.682M88.032 3.821l13.484 18.682M101.516 22.503L115 71.077M128.484 22.503L115 71.077M128.168 0v7.643M125.158 3.821h7.525M115.376 18.342v7.643M111.614 22.164h7.525M89.04 48.913v7.643M85.277 52.734h7.525M137.95 37.45v7.642M134.94 41.27h7.525"/>
    </g>
    <g>
      <path d="M58.613 117.167L39 142.077 1 93.503l11.032-18.682h34.323M58.613 74.821h7.355L77 93.503l-11.032 13.7M45.129 93.503H77M1 93.503h31.871M65.968 74.821L52.484 93.503M39 74.821l13.484 18.682M39 74.821L25.516 93.503M12.032 74.821l13.484 18.682M25.516 93.503L39 142.077M52.484 93.503L39 142.077M52.168 71v7.643M49.158 74.821h7.525M39.376 89.342v7.643M35.614 93.164h7.525M13.04 119.913v7.643M9.277 123.734h7.525M61.95 108.45v7.642M58.94 112.27h7.525"/>
    </g>
    <g>
      <path d="M211.613 252.167L192 277.077l-38-48.574 11.032-18.682h34.323M211.613 209.821h7.355L230 228.503l-11.032 13.7M198.129 228.503H230M154 228.503h31.871M218.968 209.821l-13.484 18.682M192 209.821l13.484 18.682M192 209.821l-13.484 18.682M165.032 209.821l13.484 18.682M178.516 228.503L192 277.077M205.484 228.503L192 277.077M205.168 206v7.643M202.158 209.821h7.525M192.376 224.342v7.643M188.614 228.164h7.525M166.04 254.913v7.643M162.277 258.734h7.525M214.95 243.45v7.642M211.94 247.27h7.525"/>
    </g>
    <g>
      <path d="M364.613 112.167L345 137.077l-38-48.574 11.032-18.682h34.323M364.613 69.821h7.355L383 88.503l-11.032 13.7M351.129 88.503H383M307 88.503h31.871M371.968 69.821l-13.484 18.682M345 69.821l13.484 18.682M345 69.821l-13.484 18.682M318.032 69.821l13.484 18.682M331.516 88.503L345 137.077M358.484 88.503L345 137.077M358.168 66v7.643M355.158 69.821h7.525M345.376 84.342v7.643M341.614 88.164h7.525M319.04 114.913v7.643M315.277 118.734h7.525M367.95 103.45v7.642M364.94 107.27h7.525"/>
    </g>
  </g>
</svg>
