<svg width="44" height="42" viewBox="0 0 44 42" xmlns="http://www.w3.org/2000/svg"><title>34-coal-mining</title><g transform="translate(0 1)" stroke="#4A4A4A" fill="none" fill-rule="evenodd" stroke-linejoin="round"><path d="M4.21052632 34.7368421L2.10526316 34.7368421 2.10526316 7.36842105"/><path d="M26.316 34.737H15.789"/><path d="M41.0526316 7.36842105L41.0526316 34.7368421 38.9473684 34.7368421"/><path d="M0 8.421h2.105M0 34.737h2.105M41.053 8.42h2.105m-2.105 26.316h2.105m-6.316-2.105H40m-26.316 0h15.79m-25.263 0h3.157M4.211 24.21h34.736M4.211 15.789h34.736m0-7.368H4.211"/><circle cx="10.526" cy="35.789" r="4.211"/><circle cx="33.684" cy="35.789" r="4.211"/><path d="M4.21052632 8.42105263L4.21052632 7.01754386 5.55789474 5.61403509 8.25263158 3.50877193 9.6 4.21052632 11.6210526 2.10526316 14.3157895 3.50877193 15.6631579 1.40350877 18.3578947 2.10526316 21.0526316 0 23.7473684 1.40350877 25.0947368 0.701754386 28.4631579 1.40350877 29.8105263 2.80701754 32.5052632 3.50877193 33.8526316 2.80701754 35.2 4.21052632 35.2 5.61403509 36.5473684 6.31578947 37.8947368 7.01754386 37.8947368 8.42105263"/><path d="M17.8947368 6.31578947L15.3684211 5.52631579 14.7368421 3.15789474"/><path d="M29.4736842 2.10526316L26.9473684 4.21052632 26.3157895 6.31578947"/><path d="M0 38.947h43.158M4.21 12.632h1.052m5.263 0h1.053m6.316 0h1.052m5.264 0h1.052m5.263 0h1.053m6.316 0h1.052M4.211 20h1.052m5.263 0h1.053m6.316 0h1.052m5.264 0h1.052m5.263 0h1.053m6.316 0h1.052M4.211 28.421h1.052m5.263 0h1.053m6.316 0h1.052m5.264 0h1.052m5.263 0h1.053m6.316 0h1.052"/><circle cx="33.158" cy="35.263" r="1"/><circle cx="10" cy="35.263" r="1"/></g></svg>