<svg width="256" height="280" viewBox="0 0 256 280" xmlns="http://www.w3.org/2000/svg"><title>18-core-forming</title><g transform="translate(1)" stroke="#222829" stroke-width="2" fill="none" fill-rule="evenodd" opacity=".5"><path d="M78 170h95m-95-60h95" stroke-linejoin="round"/><path stroke-linejoin="bevel" d="M125.5 251L147 172.16 147 110.84 125.5 32 104 110.84 104 172.16z"/><path stroke-linejoin="bevel" d="M125.5 251L173 172.16 173 110.84 125.5 32 78 110.84 78 172.16z"/><path d="M52 136v9m0 8v9m0-44v9" stroke-linejoin="round"/><path stroke-linejoin="round" d="M52.8 172.096774L52.8 180.83871 110 277 0 180.83871 0 102.16129 110 6 52.8 102.16129 52.8 110.903226"/><path d="M202 136v9m0-27v9m0 26v9" stroke-linejoin="round"/><path stroke-linejoin="round" d="M201.2 172.096774L201.2 180.83871 144 277 254 180.83871 254 102.16129 144 6 201.2 102.16129 201.2 110.903226"/><path d="M127 0v9m0 262v9" stroke-linejoin="round"/></g></svg>