<svg width="44" height="44" viewBox="0 0 44 44" xmlns="http://www.w3.org/2000/svg"><title>55-digital-wallet</title><g transform="translate(1 1)" stroke="#4A4A4A" fill="none" fill-rule="evenodd"><path d="M23.65 13.975L23.65 20.26375 20.425 23.05875 20.425 27.95"/><path d="M25.8 43V22.575m-5.375 1.075V17.2M13.975 43V26.875M10.75 27.95v-1.075M8.6 27.95v-1.075m7.525-6.45V19.35m6.45-6.45v-1.075m3.225 8.6V19.35m0-1.075V17.2M0 10.75v22.72c0 1.108.909 2.005 2.03 2.005h16.245M2.669 4.3h-.667A2.013 2.013 0 0 0 0 6.325C0 7.443.896 8.35 2.002 8.35H38.7v24.975M13.975 21.5h-6.45m6.45 0v-7.525m-3.225 2.15H9.675m1.075 3.225H9.675m12.9 13.975V32.25m0-2.15v-1.075m0-1.075v-1.075"/><path d="M16.125 3.225H41.925V6.45H16.125z"/><path d="M35.475 2.6875L35.475 0 3.225 0 3.225 5.375 14.646875 5.375"/><path d="M4.3 3.225h1.075m2.15 0H8.6m1.075 0h1.075"/><path d="M16.125 43L16.125 30.1 17.5583333 30.1 20.425 32.8157895 20.425 40.2842105"/><path d="M20.425 41.925V43"/><path d="M41.925 7.525L41.925 35.475 22.575 35.475"/><path d="M25.8 29.025L29.025 26.3092105 29.025 16.125"/><path d="M41.925 29.025h-5.16c-.713 0-1.29-.55-1.29-1.229v-3.071m6.45-10.75h-5.16c-.713 0-1.29.642-1.29 1.433v9.317M12.9 30.1H9.675m-6.45 3.225V12.9m0-1.075V10.75M27.95 25.8h3.225M30.1 23.65h1.075"/><path d="M17.2 27.95L17.2 24.3666667 13.975 21.5"/></g></svg>