<?xml version="1.0" standalone="no"?>
<!DOCTYPE svg PUBLIC "-//W3C//DTD SVG 20010904//EN"
 "http://www.w3.org/TR/2001/REC-SVG-20010904/DTD/svg10.dtd">
<svg version="1.0" xmlns="http://www.w3.org/2000/svg"
 width="700.000000pt" height="700.000000pt" viewBox="0 0 700.000000 700.000000"
 preserveAspectRatio="xMidYMid meet">
<metadata>
Created by potrace 1.11, written by Peter Selinger 2001-2013
</metadata>
<g transform="translate(0.000000,700.000000) scale(0.100000,-0.100000)"
fill="#000000" stroke="none">
<path d="M155 6891 c-39 -58 -72 -110 -74 -115 -2 -5 -21 -34 -42 -64 -31 -44
-38 -61 -34 -86 9 -52 25 -139 30 -166 5 -26 8 -43 25 -140 17 -97 20 -114 25
-140 3 -14 10 -52 16 -85 5 -33 12 -71 15 -85 2 -14 7 -40 10 -59 3 -18 8 -43
10 -55 2 -11 7 -37 10 -56 2 -19 9 -55 14 -80 5 -25 12 -61 15 -80 3 -19 10
-57 15 -85 5 -27 12 -63 15 -80 2 -16 14 -82 26 -145 12 -63 23 -126 25 -140
2 -14 17 -102 35 -195 17 -94 33 -183 35 -200 3 -16 9 -50 14 -75 5 -25 11
-61 14 -80 4 -19 8 -46 11 -60 3 -14 7 -38 10 -55 2 -16 15 -91 29 -165 14
-74 28 -150 31 -167 3 -18 7 -48 10 -65 5 -31 32 -178 41 -223 5 -28 41 -224
58 -325 9 -47 22 -123 31 -170 8 -47 18 -100 21 -119 3 -18 8 -43 10 -55 2
-11 13 -70 24 -131 28 -155 29 -159 40 -223 16 -98 20 -116 25 -142 3 -14 8
-41 11 -60 4 -19 8 -44 10 -55 10 -53 24 -133 29 -165 3 -19 8 -42 10 -50 2
-8 6 -33 10 -55 5 -33 43 -247 59 -331 3 -12 7 -37 10 -55 10 -62 45 -254 50
-275 2 -12 7 -39 10 -60 4 -22 11 -66 17 -99 6 -33 13 -71 15 -85 3 -14 9 -47
14 -75 5 -27 11 -61 14 -75 2 -14 7 -41 11 -60 3 -19 7 -42 9 -50 1 -8 11 -61
21 -118 20 -114 10 -103 120 -121 81 -14 116 -20 143 -25 26 -6 236 -42 322
-57 30 -5 66 -11 80 -14 14 -3 79 -14 145 -25 66 -11 140 -25 165 -30 25 -5
61 -12 80 -16 102 -17 324 -55 520 -89 14 -3 36 -7 50 -10 14 -3 90 -16 170
-30 80 -14 156 -27 170 -30 80 -14 260 -46 289 -51 18 -3 43 -8 55 -10 11 -2
89 -15 171 -29 83 -14 184 -32 225 -40 41 -8 91 -17 110 -20 19 -3 46 -7 60
-10 14 -3 39 -7 55 -10 17 -3 41 -7 55 -10 14 -3 36 -7 50 -10 14 -2 104 -18
200 -35 96 -16 187 -32 203 -35 23 -4 62 -11 172 -31 52 -9 71 -12 110 -19 22
-4 87 -15 145 -25 58 -11 119 -22 135 -25 17 -3 41 -7 55 -10 14 -2 90 -16
170 -29 80 -14 156 -28 170 -30 14 -3 79 -14 145 -26 66 -11 131 -23 145 -25
14 -3 102 -18 195 -35 213 -37 343 -60 375 -66 37 -7 234 -41 365 -64 l115
-20 87 83 c201 190 185 171 172 203 -9 24 -127 350 -209 579 -10 28 -118 325
-240 660 -122 336 -242 666 -267 735 -24 69 -58 161 -75 205 -16 44 -31 85
-32 90 -2 6 -8 23 -14 38 -7 16 -12 33 -12 38 0 5 -4 17 -10 27 -5 9 -29 73
-54 142 -43 122 -103 287 -173 480 -19 52 -43 120 -54 150 -11 30 -22 62 -26
70 -3 8 -7 20 -8 25 -2 6 -25 71 -53 145 -28 74 -57 155 -65 180 -8 25 -20 56
-26 70 -5 14 -31 84 -56 155 -26 72 -50 139 -55 150 -5 11 -13 34 -18 50 -6
17 -27 75 -47 130 -58 159 -112 307 -205 565 -23 63 -47 131 -54 150 -7 19
-23 64 -36 100 -29 82 -29 82 -87 99 -26 8 -52 16 -58 20 -5 3 -14 6 -20 7 -5
1 -134 45 -285 97 -498 172 -833 288 -990 342 -85 29 -209 72 -275 95 -66 23
-131 45 -145 47 -14 3 -29 9 -35 13 -5 4 -26 12 -45 18 -19 6 -147 49 -285 97
-137 48 -259 89 -270 92 -11 2 -29 8 -40 13 -28 11 -58 23 -70 26 -5 1 -136
46 -290 99 -154 53 -305 105 -335 115 -30 10 -167 58 -305 105 -137 48 -275
95 -305 105 -30 10 -127 43 -215 73 -88 31 -277 96 -420 145 -143 49 -294 102
-335 116 -41 15 -95 33 -120 40 l-46 14 -69 -107z"/>
</g>
</svg>
